<?xml version="1.0" encoding="utf-8"?>
<!-- Generator: Adobe Illustrator 26.0.1, SVG Export Plug-In . SVG Version: 6.00 Build 0)  -->
<svg version="1.1" id="layer" xmlns="http://www.w3.org/2000/svg" xmlns:xlink="http://www.w3.org/1999/xlink" x="0px" y="0px"
	 viewBox="0 0 391.2 391.9" enable-background="new 0 0 391.2 391.9" xml:space="preserve">
<path fill="#B6B1B5" d="M34.8,160.7C16.9,105.2,48,46,104.4,28.4c30.4-9.5,61.9-5,87.4,9.9c-9.9,7.2-18.4,15.9-25.2,25.7
	c-4.4-1.2-9-2.4-13.7-3.4c-29.7-6.5-56.6-5.4-68.2-2.7c-11.6,2.7-16.2,8.4-16.2,8.4s-5.3,5-7,16.6c-1.6,11.6-0.3,38.1,9,66.6
	c9.1,28.5,23.5,50.9,31.7,59.4c8.1,8.5,15.5,9.6,15.5,9.6s7.1,2,18.1-2.4c8.1-3.2,22.4-11.8,37.6-24.9c7.7,8.9,16.8,16.5,26.9,22.4
	c-9.2,6.6-19.6,11.9-31,15.5c-10.8,3.4-21.7,5-32.5,5C91.4,234.2,49.3,205.5,34.8,160.7 M204.3,194.5c-11.7-2.3-16.5-7.8-16.5-7.8
	s-1.8-1.6-3.8-5.2c2-2,4-4,5.9-6.2c20.6-22,33.1-45.5,36.5-56.7s0.8-18,0.8-18s-1.8-7.1-11.2-14.3c-3.9-3-10.4-6.9-18.8-10.8
	C201.5,66,206,58,210,51.9c13,11.9,23.1,27.2,28.9,45c11.4,35.4,2.9,72.3-19.5,99C213.1,195.7,207.9,195.2,204.3,194.5"/>
<path fill="#EF7D00" d="M200.3,213.7c7.2-5.2,13.6-11.2,19.1-17.8c13.7,0.3,32.7-1.2,52.9-6.3c29.5-7.3,53.1-20.1,62.2-27.7
	c9.1-7.5,10.7-14.6,10.7-14.6s2.5-6.9-1.3-17.9c-3.8-11.1-17.1-34.2-38.4-55.5c-21.2-21.5-44.3-35.2-55.5-39.2
	c-11.2-4-18.2-1.8-18.2-1.8s-7.3,1.3-15.1,10.1c-1.9,2.1-4.2,5.1-6.6,8.8c-5.6-5.2-11.7-9.7-18.3-13.5c10.8-7.8,23.3-13.8,37.1-17.2
	c57.3-14.3,115.6,19.8,130.2,76.1c14.6,56.4-20.1,113.8-77.4,128.1c-8.9,2.2-17.8,3.3-26.5,3.3C235.5,228.6,216.6,223.3,200.3,213.7
	 M151.4,149.2c-7.9-30.4-1.4-61.1,15.2-85.1c11.7,3.3,22.2,7.4,30.7,11.4c-3.8,8.4-7.3,17.8-10.2,28c-8.3,28.7-8.8,55.3-6.8,66.8
	c0.9,4.8,2.3,8.5,3.7,11.1c-3.5,3.5-7.1,6.8-10.6,9.8C163.2,179.5,155.5,165.2,151.4,149.2"/>
<path fill="#CB5E2F" d="M173.4,191.3c3.5-3,7.1-6.3,10.6-9.8c1.9,3.6,3.8,5.2,3.8,5.2s4.8,5.5,16.5,7.8c3.7,0.7,8.9,1.2,15.2,1.4
	c-5.6,6.6-12,12.6-19.1,17.8C190.2,207.8,181.1,200.2,173.4,191.3 M166.6,64c6.8-9.8,15.3-18.6,25.2-25.7
	c6.6,3.8,12.7,8.4,18.3,13.5c-4,6.1-8.5,14.1-12.8,23.6C188.7,71.4,178.3,67.4,166.6,64"/>
<path fill="#EF7D00" d="M22,314c0-31.3,18.4-49.3,50.4-49.3c10,0,18.7,1.6,25.9,4.6c2.4,1.1,3,1.7,3,3.9v12.1c0,1.7-0.7,2.7-1.9,2.7
	c-0.6,0-1.1-0.3-2.4-1.2c-5.3-3.3-13.7-5.4-21.4-5.4c-19.3,0-30,11.6-30,32.3c0,20.2,11,32,29.9,32c7.3,0,13.9-1.9,21-5.6
	c1.4-0.7,2.3-1,2.8-1c1.3,0,2,0.8,2,2.3v12c0,2-0.4,2.7-2.4,3.7c-6.3,3.4-15.9,5.2-27.2,5.2C39.3,362.3,22,345.4,22,314"/>
<path fill="#EF7D00" d="M114.6,336.8v-46.4c0-1,0.8-1.9,1.8-1.9h17.7c1,0,1.9,0.8,1.9,1.9v41c0,10.2,4.4,15.4,12.9,15.4
	c7.6,0,11.4-3.7,11.4-10.9v-45.6c0-1,0.8-1.9,1.8-1.9h17.7c1,0,1.9,0.8,1.9,1.9v68.9c0,1-0.8,1.9-1.9,1.9h-16.3
	c-1,0-1.9-0.8-1.9-1.9v-1.7H161c-0.8,0-1.7,0.3-2.8,0.7c-2,0.9-3.1,1.3-3.6,1.4c-4.4,1.7-9.4,2.6-14.4,2.6
	C124,362.2,114.6,352.9,114.6,336.8"/>
<path fill="#EF7D00" d="M204.6,361.1c-1,0-1.8-0.8-1.8-1.9v-68.9c0-1,0.8-1.8,1.8-1.8h16.3c1,0,1.8,0.8,1.8,1.8v2.3h0.4
	c1.7,0,2.3-0.1,4.4-1.1c4.4-1.9,7.7-2.7,11.7-2.9l3.7-0.1h0.9c4.7,0,6,0.8,6,4.1v10.7c0,2-0.6,3-2,3l-1.6-0.3
	c-3.7-1.2-7.2-1.6-11.3-1.6c-8.1,0-10.9,2.6-10.9,10.7v44c0,1-0.8,1.9-1.8,1.9L204.6,361.1L204.6,361.1z"/>
<path fill="#EF7D00" d="M264.2,361.1c-1,0-1.9-0.9-1.9-1.9v-68.9c0-1,0.9-1.9,1.9-1.9h17.7c1,0,1.9,0.8,1.9,1.9v68.9
	c0,1-0.9,1.9-1.9,1.9H264.2z M260.9,269.4c0-6,4.7-9.4,12.6-9.4c7.1,0,11.7,3.7,11.7,9.6c0,6-4.4,9.4-12.3,9.4
	C265.2,278.9,260.9,275.5,260.9,269.4"/>
<path fill="#EF7D00" d="M309.1,353.5c-6.6-6.3-10-15.9-10-28.2c0-24.7,12.6-38.1,36-38.1c21.3,0,34,13.4,34,35.7v4.2
	c0,1-0.9,1.9-1.9,1.9h-46.7v1.4c0,11.3,7.1,17.6,19.8,17.6c7.6,0,14.3-1.9,20.9-5.9c0.8-0.6,1.3-0.7,1.8-0.7c1.3,0,1.7,0.6,1.7,2.1
	v9.9c0,2.4-0.7,3.6-3.2,4.4c-7.9,3.1-16.1,4.4-26,4.4C323.1,362.2,315.3,359.8,309.1,353.5 M323.3,304.5c-2.3,2.6-3,5.3-3,11.3h27.4
	v-0.9c0-5.6-0.8-8-3.4-10.7c-2.4-2.6-6-3.9-10.3-3.9C329.5,300.4,325.9,301.8,323.3,304.5"/>
</svg>
