<svg id="Layer_1" data-name="Layer 1" xmlns="http://www.w3.org/2000/svg" viewBox="0 0 190 190"><defs><style>.cls-1{fill:#6dab49;}.cls-2{fill:#da0f21;}</style></defs><circle id="a" class="cls-1" cx="58.65" cy="32.6" r="7.5"/><circle id="a-2" data-name="a" class="cls-1" cx="58.65" cy="53.2" r="7.5"/><circle id="a-3" data-name="a" class="cls-1" cx="58.65" cy="73.7" r="7.5"/><circle id="a-4" data-name="a" class="cls-1" cx="58.65" cy="94.2" r="7.5"/><circle id="a-5" data-name="a" class="cls-1" cx="58.65" cy="135.4" r="7.5"/><circle id="a-6" data-name="a" class="cls-1" cx="58.65" cy="156" r="7.5"/><circle id="a-7" data-name="a" class="cls-1" cx="21.65" cy="53.1" r="7.5"/><circle id="a-8" data-name="a" class="cls-1" cx="21.65" cy="73.8" r="7.5"/><circle id="a-9" data-name="a" class="cls-1" cx="21.65" cy="94.2" r="7.5"/><circle id="a-10" data-name="a" class="cls-1" cx="21.65" cy="114.8" r="7.5"/><circle id="a-11" data-name="a" class="cls-1" cx="21.65" cy="135.3" r="7.5"/><circle id="a-12" data-name="a" class="cls-1" cx="40.65" cy="42.9" r="7.5"/><circle id="a-13" data-name="a" class="cls-1" cx="40.65" cy="63.5" r="7.5"/><circle id="a-14" data-name="a" class="cls-1" cx="40.65" cy="84" r="7.5"/><circle id="a-15" data-name="a" class="cls-1" cx="40.65" cy="104.5" r="7.5"/><circle id="a-16" data-name="a" class="cls-1" cx="40.65" cy="125" r="7.5"/><circle id="a-17" data-name="a" class="cls-1" cx="40.65" cy="145.5" r="7.5"/><circle id="a-18" data-name="a" class="cls-1" cx="168.35" cy="53.1" r="7.5"/><circle id="a-19" data-name="a" class="cls-1" cx="168.35" cy="73.5" r="7.5"/><circle id="a-20" data-name="a" class="cls-1" cx="168.35" cy="94.2" r="7.5"/><circle id="a-21" data-name="a" class="cls-1" cx="168.35" cy="114.5" r="7.5"/><circle id="a-22" data-name="a" class="cls-1" cx="168.35" cy="135.5" r="7.5"/><circle id="a-23" data-name="a" class="cls-1" cx="149.65" cy="42.9" r="7.5"/><circle id="a-24" data-name="a" class="cls-1" cx="149.65" cy="63.5" r="7.5"/><circle id="a-25" data-name="a" class="cls-1" cx="149.65" cy="84" r="7.5"/><circle id="a-26" data-name="a" class="cls-1" cx="149.65" cy="104.5" r="7.5"/><circle id="a-27" data-name="a" class="cls-1" cx="149.65" cy="125" r="7.5"/><circle id="a-28" data-name="a" class="cls-1" cx="149.65" cy="145.5" r="7.5"/><circle id="a-29" data-name="a" class="cls-1" cx="131.65" cy="32.5" r="7.5"/><circle id="a-30" data-name="a" class="cls-1" cx="131.65" cy="53.2" r="7.5"/><circle id="a-31" data-name="a" class="cls-1" cx="131.65" cy="73.5" r="7.5"/><circle id="a-32" data-name="a" class="cls-1" cx="131.65" cy="94.2" r="7.5"/><circle id="a-33" data-name="a" class="cls-1" cx="131.65" cy="114.5" r="7.5"/><circle id="a-34" data-name="a" class="cls-1" cx="131.65" cy="135.5" r="7.5"/><circle id="a-35" data-name="a" class="cls-1" cx="131.65" cy="156" r="7.5"/><circle id="b" class="cls-2" cx="58.65" cy="114.5" r="7.5"/><circle id="a-36" data-name="a" class="cls-1" cx="113.65" cy="22.5" r="7.5"/><circle id="a-37" data-name="a" class="cls-1" cx="113.65" cy="42.5" r="7.5"/><circle id="a-38" data-name="a" class="cls-1" cx="113.65" cy="63.5" r="7.5"/><circle id="a-39" data-name="a" class="cls-1" cx="113.65" cy="83.5" r="7.5"/><circle id="a-40" data-name="a" class="cls-1" cx="113.65" cy="104.5" r="7.5"/><circle id="a-41" data-name="a" class="cls-1" cx="113.65" cy="125" r="7.5"/><circle id="a-42" data-name="a" class="cls-1" cx="113.65" cy="145.5" r="7.5"/><circle id="a-43" data-name="a" class="cls-1" cx="113.65" cy="166.1" r="7.5"/><circle id="a-44" data-name="a" class="cls-1" cx="95.15" cy="12" r="7.5"/><circle id="a-45" data-name="a" class="cls-1" cx="95.15" cy="32.5" r="7.5"/><circle id="a-46" data-name="a" class="cls-1" cx="95.15" cy="53.1" r="7.5"/><circle id="a-47" data-name="a" class="cls-1" cx="95.15" cy="73.5" r="7.5"/><circle id="a-48" data-name="a" class="cls-1" cx="95.15" cy="94.5" r="7.5"/><circle id="a-49" data-name="a" class="cls-1" cx="95.15" cy="114.8" r="7.5"/><circle id="a-50" data-name="a" class="cls-1" cx="95.15" cy="135.5" r="7.5"/><circle id="a-51" data-name="a" class="cls-1" cx="95.15" cy="155.9" r="7.5"/><circle id="a-52" data-name="a" class="cls-1" cx="76.65" cy="22.2" r="7.5"/><circle id="a-53" data-name="a" class="cls-1" cx="76.65" cy="42.8" r="7.5"/><circle id="a-54" data-name="a" class="cls-1" cx="76.65" cy="63.3" r="7.5"/><circle id="a-55" data-name="a" class="cls-1" cx="76.65" cy="83.9" r="7.5"/><circle id="a-56" data-name="a" class="cls-1" cx="76.65" cy="104.5" r="7.5"/><circle id="a-57" data-name="a" class="cls-1" cx="76.65" cy="125" r="7.5"/><circle id="a-58" data-name="a" class="cls-1" cx="76.65" cy="145.5" r="7.5"/><circle id="a-59" data-name="a" class="cls-1" cx="76.65" cy="166.1" r="7.5"/><circle id="a-60" data-name="a" class="cls-1" cx="95.15" cy="176.5" r="7.5"/></svg>