<?xml version="1.0" encoding="utf-8"?>
<!-- Generator: Adobe Illustrator 26.0.1, SVG Export Plug-In . SVG Version: 6.00 Build 0)  -->
<svg version="1.1" id="Layer_1" xmlns="http://www.w3.org/2000/svg" xmlns:xlink="http://www.w3.org/1999/xlink" x="0px" y="0px"
	 viewBox="0 0 471.9 472.7" enable-background="new 0 0 471.9 472.7" xml:space="preserve">
<path fill="#17385A" d="M261.7,19.7c13.4,0,26.7,0,40.1-0.1c1.6,0,1.9,0.5,1.9,2c-0.1,6.9-0.1,13.8-0.1,20.7
	c0.8,0.7,1.7,0.4,2.6,0.4c8.9,0,17.8,0,26.7,0c5.4,0,10.8,0.1,16.2,0.1c-0.4,1.3,0.6,2.9-1.1,3.9c-0.7,0.5-0.5,1.3-0.5,2
	c0,4.5,0,8.9,0,13.4c0,0.7-0.2,1.5,0.5,2.1c1.2,1.1,1.7,2.4,1.6,4c-8.7,0-17.3,0-26,0c-27.7,0-55.3,0-83,0c-1,0-2-0.3-2.9,0.4
	c-0.8,0-1.7,0-2.5,0c-0.5-1.5,0.1-3,0.5-4.4c0-17.9,0-35.7,0-53.6c-0.3,0-0.6,0-0.9,0c0,17.9,0,35.7,0,53.6
	c-0.6,1.5-1.3,1.5-2.1,0.1c-0.5-1-0.5-2.1-0.5-3.2c0-15.1,0-30.3,0-45.4c0-2.5,0.3-4.9,0.8-7.4c0.4-1.8,1.1-2,2.6-2
	c8.6,0,17.1,0,25.7,0l0,0.1c0,0-0.1,0.1-0.1,0.1c0,3.7-0.1,7.4-0.1,11C261.2,18.3,260.9,19.2,261.7,19.7z M243,10.5
	c-0.2,0-0.3,0-0.5,0c0,17.8,0,35.6,0,53.4c0.2,0,0.3,0,0.5,0C243,46.1,243,28.3,243,10.5z M250,63.9c0.2,0,0.3,0,0.5,0
	c0-17.8,0-35.6,0-53.3c-0.2,0-0.3,0-0.5,0C250,28.3,250,46.1,250,63.9z M265.5,24.6c-0.1,0-0.3,0-0.4,0c0,13.1,0,26.2,0,39.2
	c0.1,0,0.3,0,0.4,0C265.5,50.8,265.5,37.7,265.5,24.6z M257.7,63.7c0.1,0,0.2,0,0.3-0.1c0-13.1,0-26.2,0-39.3c-0.1,0-0.2,0-0.3,0
	C257.7,37.5,257.7,50.6,257.7,63.7z M272.8,63.8c0.1,0,0.2,0,0.3,0c0-13.2,0-26.3,0-39.5c-0.1,0-0.2,0-0.3,0
	C272.8,37.5,272.8,50.6,272.8,63.8z M280.2,63.7c0.1,0,0.2-0.1,0.2-0.1c0-13.1,0-26.1,0-39.2c-0.1,0-0.2,0-0.2,0
	C280.2,37.5,280.2,50.6,280.2,63.7z M288,24.3c-0.1,0-0.2,0-0.3,0c0,13.2,0,26.3,0,39.5c0.1,0,0.2,0,0.3,0
	C288,50.6,288,37.5,288,24.3z M295.2,63.8c0.1,0,0.2,0,0.3,0c0-13.2,0-26.3,0-39.5c-0.1,0-0.2,0-0.3,0
	C295.2,37.4,295.2,50.6,295.2,63.8z M303,47.2c-0.1,0-0.2,0-0.2,0c0,5.5,0,11,0,16.5c0.1,0,0.2,0,0.2,0C303,58.2,303,52.7,303,47.2z
	 M310.6,47.2c-0.1,0-0.2,0.1-0.3,0.1c0,5.5,0,11,0,16.4c0.1,0,0.2,0,0.3,0C310.6,58.2,310.6,52.7,310.6,47.2z M318,47.2
	c-0.1,0-0.2,0-0.3,0c0,5.5,0,11,0,16.5c0.1,0,0.2,0,0.3,0C318,58.2,318,52.7,318,47.2z M325.3,63.7c0.1,0,0.2-0.1,0.3-0.1
	c0-5.5,0-10.9,0-16.4c-0.1,0-0.2,0-0.3,0C325.3,52.7,325.3,58.2,325.3,63.7z M332.7,63.6c0.1,0,0.2,0.1,0.3,0.1c0-5.5,0-10.9,0-16.4
	c-0.1,0-0.2,0-0.3,0C332.7,52.7,332.7,58.2,332.7,63.6z M340.5,47.2c-0.1,0-0.2,0.1-0.3,0.1c0,5.5,0,10.9,0,16.4c0.1,0,0.2,0,0.3,0
	C340.5,58.2,340.5,52.7,340.5,47.2z"/>
<path fill="#153C61" d="M261.3,6.3c-8.6,0-17.1,0-25.7,0c-1.5,0-2.2,0.2-2.6,2c-0.5,2.5-0.8,4.9-0.8,7.4c0,15.1,0,30.3,0,45.4
	c0,1.1-0.1,2.2,0.5,3.2c0.8,1.4,1.5,1.4,2.1-0.1c0.3,0,0.6,0,0.9,0c-0.3,1.4-1,2.9-0.5,4.4c-2.3,0-4.7,0-7,0
	c-0.5-0.5-1.2-0.4-1.9-0.4c-11.7,0-23.4,0-35.1,0c-0.6,0-1.3-0.1-1.9,0.4c-13.3,0-26.6,0-40,0c-0.4-3.4,1.3-6.5,1.1-10
	c-0.3-5.2,0.2-10.5-1-15.7c5.3,0,10.6,0,15.9-0.1c0.9,0,1.9,0.4,2.5-0.5c0-6.7,0-13.5-0.1-20.2c0-1.8,0.4-2.4,2.3-2.4
	c12.5,0.1,25,0,37.4,0.1c2,0,2.5-0.6,2.4-2.5c-0.2-3.2,0-6.5-0.1-9.7c0-1.5,0.4-2,2-2c16,0,31.9,0,47.9,0
	C260.4,5.5,261.2,5.2,261.3,6.3z M228.1,64.2c2.3,0.9,2.6-0.3,2.6-2.3c0-15,0-30,0-44.9c0-2,0-4,0-6c0-0.8-0.1-1.7-0.9-1.9
	c-0.9-0.3-1.2,0.6-1.6,1.2c-1.3,0.1-1,1.1-1,1.9c0,16.7,0,33.4,0,50.1C227.2,62.9,226.9,64,228.1,64.2z M220.5,10.6
	c-0.2,0-0.3,0-0.5,0c0,17.8,0,35.5,0,53.3c0.2,0,0.3,0,0.5,0C220.5,46.1,220.5,28.3,220.5,10.6z M183,24.1c-0.2,0-0.3,0-0.5,0
	c0,13.3,0,26.5,0,39.8c0.2,0,0.3,0,0.5,0C183,50.6,183,37.4,183,24.1z M190.4,24.2c-0.1,0-0.3,0-0.4,0c0,13.2,0,26.5,0,39.7
	c0.1,0,0.3,0,0.4,0C190.4,50.7,190.4,37.4,190.4,24.2z M198,24.5c-0.2,0-0.3,0-0.5,0c0,13.1,0,26.3,0,39.4c0.2,0,0.3,0,0.5,0
	C198,50.8,198,37.6,198,24.5z M205,63.9c0.1,0,0.3,0,0.4,0c0-13.1,0-26.2,0-39.3c-0.1,0-0.3,0-0.4,0C205,37.6,205,50.8,205,63.9z
	 M212.5,63.9c0.1,0,0.3,0,0.4,0c0-13.1,0-26.2,0-39.3c-0.1,0-0.3,0-0.4,0C212.5,37.6,212.5,50.8,212.5,63.9z M174.9,63.8
	c0.1,0,0.2,0,0.3,0c0-13.2,0-26.3,0-39.5c-0.1,0-0.2,0-0.3,0C174.9,37.5,174.9,50.6,174.9,63.8z M160.3,47.3c-0.1,0-0.2-0.1-0.3-0.1
	c0,5.5,0,11,0,16.5c0.1,0,0.2,0,0.3,0C160.3,58.2,160.3,52.7,160.3,47.3z M152.7,47.1c-0.1,0-0.2,0-0.3,0c0,5.6,0,11.1,0,16.7
	c0.1,0,0.2,0,0.3,0C152.7,58.2,152.7,52.7,152.7,47.1z M167.4,63.8c0.1,0,0.2,0,0.3,0c0-5.5,0-11,0-16.6c-0.1,0-0.2,0-0.3,0
	C167.4,52.7,167.4,58.3,167.4,63.8z"/>
<path fill="#1E3552" d="M349.1,42.9c-5.4-0.1-10.8-0.1-16.2-0.1c-8.9,0-17.8,0-26.7,0c-0.9,0-1.8,0.3-2.6-0.4c1,0.5,2.1,0.3,3.2,0.3
	c33.5,0,67.1,0,100.6-0.1c2.1,0,2.7,0.4,2.7,2.7c-0.1,88.6,0,177.2-0.1,265.8c0,22.1-4.1,43.3-14.1,63.2
	c-11.4,22.6-29.1,39-50.6,51.6c-18.1,10.6-37.6,17.9-57.5,24.4c-6.7,2.2-13.4,4.3-20.1,6.6c-11.2,3.9-22.4,7.9-32,15.2
	c0.2-1.9-0.5-3.9,0.5-5.7c3.9-3,8.3-5.1,12.8-7.1c12.9-5.6,26.4-9.6,39.7-14c19-6.3,37.8-13.3,55.2-23.5
	c22.2-13,39.8-30.2,50.4-53.9c8.3-18.6,11.4-38.2,11.4-58.3c0.1-79.5,0-158.9,0.1-238.4c0-2-0.6-2.4-2.5-2.4
	c-25.6,0.1-51.3,0-76.9,0c-0.9,0-1.8-0.1-2.7-0.1c0-0.1,0-0.3,0-0.4c8.7,0,17.3,0,26,0c17.9,0,35.8,0,53.7,0c1.8,0,3.1-0.3,2.7-2.5
	c-1-5.5-0.2-11.1-0.5-16.7c-0.1-1.6,0.4-2.9,2-3.7c0.9-0.4,1.6-1.1,1.3-2.1c-0.3-0.9-1.3-0.5-2-0.5c-9.2,0-18.3,0-27.5,0
	C369.3,42.8,359.2,42.8,349.1,42.9z"/>
<path fill="#204973" d="M236.2,466.3c-1,1.8-0.3,3.8-0.5,5.7c-16.2-11.6-35.4-16-53.8-22.3c-20.1-6.9-39.9-14.2-58.2-25.3
	c-20.4-12.4-37.1-28.4-48-49.8c-8.1-15.8-12.2-32.6-13.8-50.2c-0.6-6.1-0.6-12.3-0.6-18.5c0-78.1,0-156.3,0-234.4
	c0-8.8,0.1-17.6-0.1-26.4c0-2.3,0.7-2.7,2.8-2.6c33.5,0.1,67.1,0,100.6,0c1.1,0,2.2,0.2,3.2-0.3c-0.7,0.9-1.7,0.5-2.5,0.5
	c-5.3,0.1-10.6,0.1-15.9,0.1c-0.3,0-0.7-0.1-1-0.1c-27,0-53.9,0-80.9,0c-2,0-3.1,2-1.8,3.8c1.3,1.7,1.1,3.4,1.2,5.2
	c0,2.9,0,5.8,0,8.7c0,1.2-0.2,2.2-1.1,3.2c-1.4,1.6-1.5,3.4,0.1,5.1c-0.1,1.1-0.2,2.1-0.2,3.2c0,78.7,0,157.5,0,236.2
	c0,10.5,0.8,20.9,2.7,31.3c4.5,24.1,14.8,45.2,32.5,62.4c13.1,12.7,28.4,21.8,44.9,29.3c16.8,7.6,34.3,13.2,51.7,19
	c13,4.3,26.1,8.4,37.7,16.1C235.5,466.4,235.9,466.3,236.2,466.3z"/>
<path fill="#153C61" d="M261.7,19.7c-0.9-0.6-0.6-1.5-0.6-2.2c0-3.7,0-7.4,0.1-11c0.7,3.2,0.1,6.4,0.3,9.6
	C261.6,17.3,261.7,18.5,261.7,19.7z"/>
<path fill="#FEFFFF" d="M236.2,466.3c-0.3,0-0.7,0-1-0.1c-11.6-7.7-24.7-11.8-37.7-16.1c-17.4-5.8-35-11.3-51.7-19
	c-16.4-7.5-31.8-16.7-44.9-29.3c-17.7-17.2-28-38.3-32.5-62.4c-1.9-10.3-2.7-20.8-2.7-31.3c0-78.7,0-157.5,0-236.2
	c0-1.1,0.1-2.1,0.2-3.2c1.5,0,3-0.1,4.5-0.1c3.1,0,6.3,0,9.4,0c0.9,0,1.8,0.1,2.7,0.1c20.2,0,40.3,0,60.5,0c2.1,0,4.1-0.1,6.2-0.1
	c13.3,0,26.6,0,40,0c13,0.2,26,0.2,38.9,0c2.3,0,4.7,0,7,0c0.8,0,1.7,0,2.5,0c0.6,0,1.2,0.1,1.7,0.1c27.5,0,55,0,82.4,0
	c0.6,0,1.2-0.1,1.7-0.1c0.9,0,1.8,0.1,2.7,0.1c25.6,0,51.3,0,76.9,0c1.9,0,2.5,0.4,2.5,2.4c-0.1,79.5,0,158.9-0.1,238.4
	c0,20.1-3.1,39.7-11.4,58.3c-10.6,23.8-28.2,41-50.4,53.9c-17.4,10.2-36.1,17.1-55.2,23.5c-13.3,4.4-26.8,8.4-39.7,14
	C244.6,461.2,240.1,463.3,236.2,466.3z M285.7,77.3c-1.1,0-2.2-0.1-3.2-0.1c-20,0-39.9,0-59.9,0c-16.9,0-33.8,0-50.7,0.1
	c-31.9,0-63.9-0.1-95.8-0.1c-0.8,0-1.7,0-2,1c0,56.9,0,113.9,0,170.8c0,0.5,0.1,1,0.1,1.5c0,20.6-0.5,41.2,0.3,61.8
	c0.5,12.8,2.3,25.4,6.1,37.6c1.8,5.8,3.8,11.6,7,17c0.1,0.2,0.1,0.5,0.2,0.7c7.7,15.1,18.5,27.5,31.9,37.8
	c14.9,11.4,31.6,19.2,49,25.8c13.9,5.3,28.3,9.2,42.2,14.4c7,2.6,14,5.2,20.2,9.5c1.6,1.1,2.8,2.7,4.6,3.3l0.1,0
	c0.3,0.4,0.5,0.2,0.6-0.1c5.2-4.4,11.1-7.6,17.4-10.1c14.3-5.7,29.1-9.8,43.6-15c16.7-6,33-12.9,47.8-22.9
	c19.6-13.1,34.4-30.2,43.1-52.3c6.8-17.3,9.2-35.5,9.3-53.9c0.1-74.4,0-148.8,0-223.2c0-0.9,0-1.8-0.1-2.7c0-0.3-0.1-0.4-0.4-0.4
	c-0.3,0-0.6,0-0.9,0c-1.9-0.6-3.9-0.6-5.9-0.6c-33.8,0-67.7,0-101.5,0C287.7,77.2,286.7,77.3,285.7,77.3z"/>
<path fill="#18304D" d="M349.1,42.9c10.1,0,20.1-0.1,30.2-0.1c9.2,0,18.3,0,27.5,0c0.7,0,1.7-0.4,2,0.5c0.3,1-0.4,1.7-1.3,2.1
	c-1.6,0.7-2.1,2-2,3.7c0.2,5.6-0.5,11.1,0.5,16.7c0.4,2.1-0.9,2.5-2.7,2.5c-17.9,0-35.8,0-53.7,0c0.1-1.6-0.3-2.9-1.6-4
	c0-5.8,0-11.6,0-17.5C349.8,45.8,348.8,44.1,349.1,42.9z M400,47.2c-1.5,0.4-1.5,1.6-1.5,2.8c0,3.7,0,7.3,0,11c0,1.2,0,2.4,1.5,2.8
	c0.9,0.7,1,0.1,1-0.6c0-5.1,0-10.2,0-15.3C401,47.1,400.8,46.5,400,47.2z M370.8,47c-0.2,0-0.3,0-0.5,0c0,5.6,0,11.2,0,16.8
	c0.2,0,0.3,0,0.5,0C370.8,58.3,370.8,52.6,370.8,47z M362.7,63.9c0.2,0,0.3,0,0.5,0c0-5.6,0-11.2,0-16.9c-0.2,0-0.3,0-0.5,0
	C362.7,52.6,362.7,58.3,362.7,63.9z M355.3,63.9c0.1,0,0.3,0,0.4,0c0-5.6,0-11.3,0-16.9c-0.1,0-0.3,0-0.4,0
	C355.3,52.6,355.3,58.3,355.3,63.9z M385.8,47c-0.1,0-0.3,0-0.4,0c0,5.6,0,11.3,0,16.9c0.1,0,0.3,0,0.4,0
	C385.8,58.3,385.8,52.6,385.8,47z M378.3,47c-0.2,0-0.3,0-0.5,0c0,5.6,0,11.2,0,16.9c0.2,0,0.3,0,0.5,0
	C378.3,58.3,378.3,52.6,378.3,47z M392.8,63.9c0.2,0,0.3,0,0.5,0c0-5.6,0-11.2,0-16.9c-0.2,0-0.3,0-0.5,0
	C392.8,52.6,392.8,58.3,392.8,63.9z"/>
<path fill="#5D6B8A" d="M235.7,64.1c-0.3,0-0.6,0-0.9,0c0-17.9,0-35.7,0-53.6c0.3,0,0.6,0,0.9,0C235.7,28.4,235.7,46.3,235.7,64.1z"
	/>
<path fill="#5D6B8A" d="M243,10.5c0,17.8,0,35.6,0,53.4c-0.2,0-0.3,0-0.5,0c0-17.8,0-35.6,0-53.4C242.7,10.5,242.9,10.5,243,10.5z"
	/>
<ellipse fill="#5D6B8A" cx="250.2" cy="37.2" rx="0.3" ry="37.7"/>
<path fill="#204973" d="M323.6,68.6c-0.6,0-1.2,0.1-1.7,0.1c-27.5,0-55,0-82.4,0c-0.6,0-1.2-0.1-1.7-0.1c0.9-0.7,1.9-0.4,2.9-0.4
	c27.7,0,55.3,0,83,0C323.6,68.3,323.6,68.4,323.6,68.6z"/>
<ellipse fill="#5D6B8A" cx="265.3" cy="44.2" rx="0.3" ry="27.7"/>
<path fill="#787E9B" d="M257.7,63.7c0-13.1,0-26.2,0-39.3c0.1,0,0.2,0,0.3,0c0,13.1,0,26.2,0,39.3C257.9,63.6,257.8,63.7,257.7,63.7
	z"/>
<ellipse fill="#5D6B8A" cx="272.9" cy="44" rx="0.2" ry="27.9"/>
<path fill="#787E9B" d="M280.2,63.7c0-13.1,0-26.2,0-39.3c0.1,0,0.2,0,0.2,0c0,13.1,0,26.1,0,39.2C280.4,63.6,280.3,63.7,280.2,63.7
	z"/>
<path fill="#787E9B" d="M288,24.3c0,13.1,0,26.3,0,39.4c-0.1,0-0.2,0-0.3,0c0-13.2,0-26.3,0-39.5C287.8,24.3,287.9,24.3,288,24.3z"
	/>
<ellipse fill="#787E9B" cx="295.4" cy="44" rx="0.2" ry="27.9"/>
<ellipse fill="#787E9B" cx="302.9" cy="55.4" rx="0.2" ry="11.7"/>
<path fill="#5D6B8A" d="M310.6,47.2c0,5.5,0,11,0,16.5c-0.1,0-0.2,0-0.3,0c0-5.5,0-11,0-16.4C310.4,47.2,310.5,47.2,310.6,47.2z"/>
<path fill="#5D6B8A" d="M318,47.2c0,5.5,0,11,0,16.5c-0.1,0-0.2,0-0.3,0c0-5.5,0-11,0-16.5C317.8,47.3,317.9,47.2,318,47.2z"/>
<path fill="#787E9B" d="M325.3,63.7c0-5.5,0-11,0-16.5c0.1,0,0.2,0,0.3,0c0,5.5,0,10.9,0,16.4C325.4,63.6,325.3,63.6,325.3,63.7z"/>
<path fill="#5D6B8A" d="M332.7,63.6c0-5.4,0-10.9,0-16.3c0.1,0,0.2,0,0.3,0c0,5.5,0,10.9,0,16.4C332.9,63.7,332.8,63.6,332.7,63.6z"
	/>
<path fill="#787E9B" d="M340.5,47.2c0,5.5,0,11,0,16.5c-0.1,0-0.2,0-0.3,0c0-5.5,0-10.9,0-16.4C340.3,47.3,340.4,47.2,340.5,47.2z"
	/>
<path fill="#5D6B8A" d="M348.1,46.7c0,5.8,0,11.6,0,17.5c-0.7-0.6-0.5-1.4-0.5-2.1c0-4.5,0-8.9,0-13.4
	C347.6,48.1,347.3,47.3,348.1,46.7z"/>
<path fill="#164169" d="M70.4,68.6c-1.5,0-3,0.1-4.5,0.1c-1.6-1.7-1.5-3.5-0.1-5.1c0.9-1,1.1-2,1.1-3.2c0-2.9,0-5.8,0-8.7
	c0-1.8,0.1-3.5-1.2-5.2c-1.3-1.7-0.2-3.8,1.8-3.8c27,0,53.9,0,80.9,0c0.3,0,0.7,0.1,1,0.1c1.2,5.2,0.7,10.5,1,15.7
	c0.2,3.5-1.4,6.6-1.1,10c-2.1,0-4.1,0.1-6.2,0.1c-20.2,0-40.3,0-60.5,0c-0.9,0-1.8-0.1-2.7-0.1C76.7,67.9,73.6,67.9,70.4,68.6z
	 M77.7,47c-0.2,0-0.3,0-0.5,0c0,5.6,0,11.3,0,16.9c0.2,0,0.3,0,0.5,0C77.7,58.3,77.7,52.6,77.7,47z M100.2,47c-0.2,0-0.3,0-0.5,0
	c0,5.6,0,11.3,0,16.9c0.2,0,0.3,0,0.5,0C100.2,58.3,100.2,52.6,100.2,47z M92.2,63.9c0.2,0,0.3,0,0.5,0c0-5.6,0-11.3,0-16.9
	c-0.2,0-0.3,0-0.5,0C92.2,52.6,92.2,58.3,92.2,63.9z M84.7,63.9c0.1,0,0.3,0,0.4,0c0-5.6,0-11.3,0-16.9c-0.1,0-0.3,0-0.4,0
	C84.7,52.7,84.7,58.3,84.7,63.9z M70.2,47c-0.2,0-0.3,0-0.5,0c0,5.6,0,11.3,0,16.9c0.2,0,0.3,0,0.5,0C70.2,58.3,70.2,52.6,70.2,47z
	 M145.2,47.1c-0.1,0-0.2,0-0.3,0c0,5.6,0,11.1,0,16.7c0.1,0,0.2,0,0.3,0C145.2,58.2,145.2,52.7,145.2,47.1z M137.7,47.1
	c-0.1,0-0.2,0-0.3,0c0,5.6,0,11.1,0,16.7c0.1,0,0.2,0,0.3,0C137.7,58.2,137.7,52.7,137.7,47.1z M130.3,47.2c-0.1,0-0.2,0.1-0.3,0.1
	c0,5.5,0,11,0,16.5c0.1,0,0.2,0,0.3,0C130.3,58.2,130.3,52.7,130.3,47.2z M122.8,47.2c-0.1,0-0.2,0.1-0.3,0.1c0,5.5,0,11,0,16.4
	c0.1,0,0.2,0,0.3,0C122.8,58.2,122.8,52.7,122.8,47.2z M114.9,63.7c0.1,0,0.2,0,0.3,0c0-5.5,0-11,0-16.5c-0.1,0-0.2,0-0.3,0
	C114.9,52.7,114.9,58.2,114.9,63.7z M107.7,47.1c-0.1,0-0.2,0-0.3,0c0,5.5,0,11.1,0,16.6c0.1,0,0.2,0,0.3,0
	C107.7,58.2,107.7,52.7,107.7,47.1z"/>
<path fill="#17385A" d="M228.2,10.3c0.4-0.6,0.8-1.5,1.6-1.2c0.7,0.3,0.9,1.2,0.9,1.9c0,2,0,4,0,6c0,15,0,30,0,44.9
	c0,1.9-0.3,3.2-2.6,2.3C228.2,46.2,228.2,28.2,228.2,10.3z"/>
<path fill="#5D6B8A" d="M220.5,10.6c0,17.8,0,35.5,0,53.3c-0.2,0-0.3,0-0.5,0c0-17.8,0-35.5,0-53.3
	C220.2,10.6,220.3,10.6,220.5,10.6z"/>
<path fill="#5D6B8A" d="M228.2,10.3c0,18,0,35.9-0.1,53.9c-1.3-0.2-0.9-1.2-0.9-2c0-16.7,0-33.4,0-50.1
	C227.2,11.4,226.9,10.4,228.2,10.3z"/>
<ellipse fill="#5D6B8A" cx="182.7" cy="44" rx="0.3" ry="28.1"/>
<ellipse fill="#5D6B8A" cx="190.2" cy="44" rx="0.3" ry="28.1"/>
<path fill="#5D6B8A" d="M198,24.5c0,13.1,0,26.3,0,39.4c-0.2,0-0.3,0-0.5,0c0-13.1,0-26.3,0-39.4C197.7,24.5,197.8,24.5,198,24.5z"
	/>
<path fill="#5D6B8A" d="M205,63.9c0-13.1,0-26.2,0-39.4c0.1,0,0.3,0,0.4,0c0,13.1,0,26.2,0,39.3C205.2,63.9,205.1,63.9,205,63.9z"/>
<path fill="#5D6B8A" d="M212.5,63.9c0-13.1,0-26.2,0-39.3c0.1,0,0.3,0,0.4,0c0,13.1,0,26.2,0,39.3C212.7,63.9,212.6,63.9,212.5,63.9
	z"/>
<ellipse fill="#787E9B" cx="175" cy="44" rx="0.2" ry="27.9"/>
<path fill="#204973" d="M228.2,68.6c-13,0.2-26,0.2-38.9,0c0.5-0.5,1.2-0.4,1.9-0.4c11.7,0,23.4,0,35.1,0
	C227,68.2,227.7,68,228.2,68.6z"/>
<path fill="#787E9B" d="M160.3,47.3c0,5.5,0,10.9,0,16.4c-0.1,0-0.2,0-0.3,0c0-5.5,0-11,0-16.5C160.1,47.2,160.2,47.2,160.3,47.3z"
	/>
<ellipse fill="#787E9B" cx="152.6" cy="55.4" rx="0.2" ry="11.8"/>
<ellipse fill="#787E9B" cx="167.6" cy="55.5" rx="0.2" ry="11.7"/>
<path fill="#65BAE9" d="M396.1,77.8c0.3,0,0.6,0,0.9,0c0.1,0.1,0.3,0.3,0.4,0.4c0,0.9,0.1,1.8,0.1,2.7c0,74.4,0,148.8,0,223.2
	c0,18.5-2.4,36.6-9.3,53.9c-8.7,22.1-23.6,39.1-43.1,52.3c-14.8,10-31.1,16.9-47.8,22.9c-14.5,5.2-29.3,9.2-43.6,15
	c-6.3,2.5-12.2,5.7-17.4,10.1c-0.2,0-0.4,0.1-0.6,0.1c0,0-0.1,0-0.1,0c0-2.2,0-4.5,0.1-6.7c0.1-2.3-0.5-4.6,0.5-6.9
	c2.9-2,6-3.6,9.2-5c11-4.9,22.4-8.3,33.8-12.1c18.3-6,36.3-12.4,53-22.2c18.4-10.8,33.3-25.1,42.7-44.5c8.3-17,11.5-35.2,11.5-53.9
	c0.2-72.1,0.1-144.2,0.1-216.4c0-0.8,0-1.7-0.1-2.5c1.3-1.4,2.6-2.7,3.9-4.1C392.2,82,394.7,80.4,396.1,77.8z"/>
<path fill="#8DC5EC" d="M236.2,444.7c-1,2.2-0.4,4.6-0.5,6.9c-0.1,2.2-0.1,4.5-0.1,6.7c-1.9-0.6-3.1-2.2-4.6-3.3
	c-6.2-4.4-13.2-7-20.2-9.5c-14-5.1-28.3-9.1-42.2-14.4c-17.4-6.6-34.2-14.4-49-25.8c-13.4-10.3-24.2-22.7-31.9-37.8
	c-0.1-0.2-0.1-0.5-0.2-0.7c0.5-1.7,1.7-2.1,3.4-2c2.5,0.1,5.1,0,7.6,0c0.2,0.3,0.5,0.5,0.6,0.8c4.2,7.8,9.5,14.8,15.7,21.1
	c9.2,9.3,19.9,16.6,31.4,22.6c15.7,8.2,32.5,13.8,49.3,19.4c13.5,4.5,27.4,8.3,39.7,15.8C235.3,444.7,235.8,444.7,236.2,444.7z"/>
<path fill="#AFD5F2" d="M74.1,250.5c0-0.5-0.1-1-0.1-1.5c0-56.9,0-113.9,0-170.8c1.1,0,1.5,0.9,2.2,1.5c3,2.8,5.6,5.9,8.8,8.5
	c0,39.8,0,79.6,0,119.4c0,14.3,0,28.6,0,42.9C81.3,250.5,77.7,250.5,74.1,250.5z"/>
<path fill="#9BCCEF" d="M74.1,250.5c3.6,0,7.2,0,10.8,0c0.3,21.4-0.5,42.8,0.5,64.2c0.3,6.5,1.1,12.9,2.3,19.2
	c2,10.8,5.7,21.1,10.7,30.9c-2.5,0-5.1,0.1-7.6,0c-1.7-0.1-2.9,0.3-3.4,2c-3.1-5.3-5.1-11.1-7-17c-3.8-12.2-5.6-24.8-6.1-37.6
	C73.6,291.7,74.1,271.1,74.1,250.5z"/>
<path fill="#BADBF5" d="M171.8,77.3c16.9,0,33.8,0,50.7-0.1c20,0,39.9,0,59.9,0c1.1,0,2.2,0.1,3.2,0.1c0,3.6,0,7.2,0,10.9
	c-38,0-75.9,0-113.9,0C171.8,84.5,171.8,80.9,171.8,77.3z"/>
<path fill="#AFD5F2" d="M285.7,88.2c0-3.6,0-7.2,0-10.9c1,0,2-0.1,3-0.1c33.8,0,67.7,0,101.5,0c2,0,4,0,5.9,0.6
	c-1.4,2.6-3.9,4.2-5.8,6.3c-1.3,1.4-2.6,2.8-3.9,4.1c-1.1,0-2.2-0.1-3.2-0.1C350.7,88.2,318.2,88.2,285.7,88.2z"/>
<path fill="#CFE4F7" d="M171.8,77.3c0,3.6,0,7.3,0,10.9c-29,0-57.9,0-86.9,0c-3.2-2.5-5.8-5.7-8.8-8.5c-0.6-0.6-1.1-1.5-2.2-1.5
	c0.3-1.1,1.2-1,2-1C107.9,77.2,139.9,77.2,171.8,77.3z"/>
<path fill="#204973" d="M70.4,68.6c3.1-0.6,6.3-0.6,9.4,0C76.7,68.6,73.6,68.6,70.4,68.6z"/>
<path fill="#9BCCEF" d="M397.4,78.2c-0.1-0.1-0.3-0.3-0.4-0.4C397.3,77.8,397.4,77.9,397.4,78.2z"/>
<path fill="#8DC5EC" d="M235.6,458.3c0.2,0,0.4-0.1,0.6-0.1C236.1,458.5,235.9,458.7,235.6,458.3z"/>
<path fill="#1E3552" d="M400,63.7c-1.5-0.4-1.5-1.6-1.5-2.8c0-3.7,0-7.3,0-11c0-1.2,0-2.4,1.5-2.8C400,52.7,400,58.2,400,63.7z"/>
<path fill="#535F7C" d="M400,63.7c0-5.5,0-11,0-16.5c0.8-0.7,1-0.1,1,0.6c0,5.1,0,10.2,0,15.3C401,63.7,400.9,64.4,400,63.7z"/>
<ellipse fill="#535F7C" cx="370.5" cy="55.4" rx="0.4" ry="11.9"/>
<path fill="#535F7C" d="M362.7,63.9c0-5.6,0-11.2,0-16.9c0.2,0,0.3,0,0.5,0c0,5.6,0,11.2,0,16.9C363.1,63.9,362.9,63.9,362.7,63.9z"
	/>
<path fill="#535F7C" d="M355.3,63.9c0-5.6,0-11.2,0-16.9c0.1,0,0.3,0,0.4,0c0,5.6,0,11.3,0,16.9C355.6,63.9,355.4,63.9,355.3,63.9z"
	/>
<path fill="#535F7C" d="M385.8,47c0,5.6,0,11.2,0,16.9c-0.1,0-0.3,0-0.4,0c0-5.6,0-11.3,0-16.9C385.5,47,385.6,47,385.8,47z"/>
<path fill="#535F7C" d="M378.3,47c0,5.6,0,11.2,0,16.9c-0.2,0-0.3,0-0.5,0c0-5.6,0-11.2,0-16.9C378,47,378.1,47,378.3,47z"/>
<ellipse fill="#535F7C" cx="393" cy="55.4" rx="0.3" ry="11.9"/>
<path fill="#5D6B8A" d="M77.7,47c0,5.6,0,11.3,0,16.9c-0.2,0-0.3,0-0.5,0c0-5.6,0-11.3,0-16.9C77.4,47,77.6,47,77.7,47z"/>
<ellipse fill="#5D6B8A" cx="99.9" cy="55.4" rx="0.4" ry="11.9"/>
<ellipse fill="#5D6B8A" cx="92.4" cy="55.4" rx="0.4" ry="11.9"/>
<path fill="#5D6B8A" d="M84.7,63.9c0-5.6,0-11.3,0-16.9c0.1,0,0.3,0,0.4,0c0,5.6,0,11.3,0,16.9C84.9,63.9,84.8,63.9,84.7,63.9z"/>
<ellipse fill="#5D6B8A" cx="69.9" cy="55.4" rx="0.4" ry="11.9"/>
<ellipse fill="#787E9B" cx="145.1" cy="55.4" rx="0.2" ry="11.8"/>
<ellipse fill="#787E9B" cx="137.6" cy="55.4" rx="0.2" ry="11.8"/>
<path fill="#787E9B" d="M130.3,47.2c0,5.5,0,11,0,16.6c-0.1,0-0.2,0-0.3,0c0-5.5,0-11,0-16.5C130.1,47.2,130.2,47.2,130.3,47.2z"/>
<path fill="#787E9B" d="M122.8,47.2c0,5.5,0,11,0,16.6c-0.1,0-0.2,0-0.3,0c0-5.5,0-11,0-16.4C122.6,47.2,122.7,47.2,122.8,47.2z"/>
<ellipse fill="#787E9B" cx="115.1" cy="55.5" rx="0.2" ry="11.7"/>
<ellipse fill="#787E9B" cx="107.6" cy="55.4" rx="0.2" ry="11.8"/>
<path fill="#FEFFFF" d="M84.9,88.2c29,0,57.9,0,86.9,0c38,0,75.9,0,113.9,0c32.5,0,65,0,97.5,0.1c1.1,0,2.2,0,3.2,0.1
	c0,0.8,0.1,1.7,0.1,2.5c0,72.1,0.1,144.2-0.1,216.4c0,18.7-3.3,36.9-11.5,53.9c-9.4,19.4-24.3,33.7-42.7,44.5
	c-16.7,9.8-34.7,16.2-53,22.2c-11.4,3.7-22.8,7.2-33.8,12.1c-3.2,1.4-6.3,3-9.2,5c-0.4-0.1-0.9,0-1.2-0.2
	c-12.3-7.5-26.2-11.3-39.7-15.8c-16.8-5.6-33.6-11.2-49.3-19.4c-11.5-6-22.2-13.3-31.4-22.6c-6.2-6.3-11.5-13.3-15.7-21.1
	c-0.2-0.3-0.4-0.5-0.6-0.8c-5-9.8-8.6-20.1-10.7-30.9c-1.2-6.3-2-12.7-2.3-19.2c-0.9-21.4-0.1-42.8-0.5-64.2c0-14.3,0-28.6,0-42.9
	C84.9,167.8,84.9,128,84.9,88.2z M146,351.2c-5.6-5.6-11.9-10.1-20.2-12.4c3.4,6.7,7.6,11.7,13.8,14.6c1,0.5,2.2,0.8,3.3,1
	c4.1,0.7,5.8-0.3,7.4-4.1c0.9-2.1,1.4-4.3,1.8-6.5c0.7-4.2,1.2-8.4,0.5-13.1c-5.9,5.8-8.3,12.2-6.2,20
	C146.3,350.9,146.2,351,146,351.2z M178.6,376c-7.6-3-14.4-1-21.4,3c6.9,2.3,13.4,2.6,19.9,1.2c4.9-1,6.6-3.5,5.7-8.5
	c-1.4-7.3-6.1-12.4-11.9-17.5c0.1,8.7,3.6,15.2,8.4,21.3C179,375.7,178.8,375.9,178.6,376z M310.3,365.5c-0.2-0.2-0.3-0.3-0.5-0.5
	c6.8-5.7,6.3-15.2,2-19.3c-1.5,5.7-4,10.8-4.9,16.5c-0.7,4.1,0.7,6.3,4.6,7.6c7,2.4,18.3-1.4,23-8
	C326.1,362.3,318.1,363.2,310.3,365.5z M258.8,137.1c0.8-0.3,1-0.4,1.3-0.5c8.4-2.5,16.9-2.5,25.5-1.5c11.1,1.3,18.4,7.4,22,18
	c1.3,3.9,1.9,7.9,2.3,12c0.3,2.7,1.5,3.6,4.2,3.5c2.4-0.1,3.4-1.3,3.4-3.9c0-6.3-0.1-12.7,0-19c0.1-4.6-1.7-8.4-4.8-11.6
	c-4-4.1-9-6.6-14.5-7.8c-18-3.9-35.7-2.8-53.1,3.2c-1.4,0.5-2.6,0.6-4.1,0.2c-6.5-1.7-13.1-2.5-19.7-2.5c-23.9,0-47.8,0-71.7,0
	c-3.5,0-3.7,0.2-3.7,3.7c0,3.3,0.4,3.7,3.8,3.7c0.7,0,1.5,0,2.2,0c8.7,0,14.2,5.5,14.2,14.2c0,18.6,0,37.3,0,55.9
	c0,17.8,0,35.6,0,53.4c0,6.5-4.2,11.9-10.3,13.3c-2.1,0.5-4.3,0.3-6.5,0.3c-3.1,0-3.5,0.4-3.5,3.7c0,3.3,0.3,3.7,3.5,3.7
	c19.4,0,38.8,0,58.2,0c0.6,0,1.2,0,1.7,0c1-0.1,1.7-0.8,1.8-1.8c0.2-4.5,0.5-5.9-4.3-5.5c-0.5,0-1,0-1.5,0
	c-8.9,0-14.4-5.5-14.4-14.3c0-10.6,0-21.1,0-31.7c0-9.6,5.1-14.6,14.6-14.6c1.7,0,2.2,0.5,2.3,2.2c0.4,9.7,1.8,19.2,4.9,28.4
	c5.5,16.5,15.6,28.9,32.2,35.2c14.5,5.5,29.5,6.5,44.7,3.4c14.3-2.9,23.6-11.5,28.1-25.4c1.4-4.4,2.3-8.8,3-13.4
	c0.3-2.1,0.2-4-2.1-4.3c-4.1-0.5-5.6-0.4-6.4,2.8c-0.5,2-1,4-1.7,6c-7,20.8-29.5,30.5-49,21.1c-8.1-3.9-13.7-10.5-17.7-18.4
	c-5.5-11-7.5-22.8-8.4-34.9c-0.2-2.3,0.2-3.1,2.7-3.3c20-1.8,33.4-13.4,37.2-32.5c2.6-12.8,0.7-24.7-8.8-34.5
	C264.3,141.2,261.8,139.2,258.8,137.1z M137.3,362.2c4.2,4.7,9.4,7.6,15.7,8.2c3,0.3,6,0,8.7-1.5c2-1.1,3.1-2.7,3-5
	c-0.4-6.5-3.5-12.1-5.3-18.8c-2.5,3.9-3.5,7.4-2.8,11.3c0.6,3.9,2.9,6.7,5.6,9.3C154,363.1,145.7,362.4,137.3,362.2z M314.4,379
	c-7.5-4.4-14.8-5.9-23.1-2.3c6.4-7.3,10.3-17.1,8.9-22c-3.6,3.1-6.8,6.5-9,10.6c-1.4,2.5-2.4,5.1-2.5,8c-0.1,4,1,5.8,4.9,6.7
	C300.3,381.8,307.1,381.3,314.4,379z M149,312.1c-7,5.3-10.2,11.9-10.2,20.5c-6.2-9.4-12.5-14.9-17.5-15.5c1.3,4,3.3,7.6,5.9,10.9
	c2.2,2.7,4.6,5,7.9,6.3c3.1,1.3,5.3,0.9,7.3-1.7C147,326.7,148.5,319.8,149,312.1z M318.6,331c-0.5,6.8,0.2,13.2,2.5,19.3
	c1.4,3.7,3.4,4.9,7.2,4.1c8.6-1.8,13.2-8.1,17.5-15.8c-8.7,2.5-15.2,7.3-21.3,13.7C327.1,343.7,324.9,336,318.6,331z M332.7,333.5
	c0.1-9.7-4.4-18.8-10.1-20.7c0.6,6.8,1.9,13.2,5.8,18.9c2.6,3.7,5.3,4.4,9.2,2.2c6.6-3.8,10.2-9.9,13-17.4
	C342.2,320,336.5,325.2,332.7,333.5z M250.4,338.1c-1.7-2.3-3.1-4.4-4.6-6.4c-0.7-0.9-0.7-1.4,0.3-2.2c2.4-2,3-4.6,1.9-7.4
	c-1.1-2.8-3.4-4-6.3-4.2c-2.2-0.1-4.5,0-6.7-0.1c-1.3,0-1.7,0.5-1.7,1.7c0.1,5.7,0.1,11.3,0,17c0,1.5,0.6,1.7,1.9,1.8
	c2,0.1,2.8-0.5,2.5-2.5c-0.1-0.8-0.1-1.7,0-2.5c0.1-0.8-0.4-1.8,0.8-2.1c1.1-0.2,2.1-0.2,2.9,0.9c0.8,1.2,1.9,2.3,2.6,3.6
	C245.3,338.5,247.4,338.7,250.4,338.1z M181.3,328c0,2.9,0,5.8,0,8.7c0,1.1,0.3,1.6,1.5,1.7c2.2,0.2,3.1-0.4,3-2.8
	c-0.2-3.9,0-4,3.8-4.3c4.4-0.4,6.9-3,6.8-7.1c-0.1-3.7-2.9-6.2-7.2-6.3c-2,0-4,0.1-6,0c-1.4-0.1-1.9,0.4-1.9,1.9
	C181.3,322.5,181.3,325.2,181.3,328z M222.8,338.4c-3-6.9-5.8-13.3-8.7-19.8c-0.2-0.5-0.6-1-1.3-1c-0.9,0-0.9,0.8-1.2,1.4
	c-2.4,5.5-4.8,10.9-7.2,16.4c-0.4,0.9-1.5,2-0.7,2.6c0.6,0.6,2.1,0.2,3.1,0.3c0.8,0,1.2-0.5,1.4-1.2c0.3-1.1,1-1.4,2.1-1.3
	c1.8,0.1,3.7,0,5.5,0c0.6,0,1.3-0.1,1.5,0.6C218.1,339.2,220.4,338.2,222.8,338.4z M283.7,338.8c4-0.1,6.7-2,7.3-4.9
	c0.7-2.9-0.8-5.3-4.3-7c-1.1-0.5-2.3-0.9-3.4-1.5c-1.1-0.6-2.5-1.1-1.8-2.7c0.7-1.5,2.1-1.5,3.5-1.1c0.7,0.2,1.4,0.7,1.9,1.2
	c1.5,1.5,2.3-0.1,3.1-0.7c1.2-0.9-0.1-1.5-0.6-2.2c-1.3-1.6-3.2-2-5.1-2.3c-3-0.4-6.4,1.7-7.1,4.1c-0.8,3,0.3,5.3,3.6,7.1
	c1.4,0.7,2.8,1.4,4.3,2.1c1.1,0.5,1.8,1.3,1.5,2.5c-0.3,1.2-1.4,1.5-2.5,1.6c-1.8,0.1-3.3-0.6-4.4-1.9c-1.2-1.3-1.9-0.1-2.7,0.4
	c-1.2,0.7-0.6,1.6,0,2.3C278.8,337.8,281.3,338.7,283.7,338.8z M246.2,377.1c3.1-2,3.9-4.1,2.2-6.1c-1.8-2.1-4.2-2.1-6.7-1.6
	c-1.9,0.4-3.5,1.4-4,3.4c-0.6,2.4,0.7,4,2.5,5.3c0.1,0.1,0.1,0.3,0.1,0.4c-3.1,2-4,4.1-2.6,6.2c1.7,2.6,4.4,2.8,7.1,2.5
	c2.4-0.3,4.5-1.4,5-4.1c0.6-2.8-1.1-4.3-3.3-5.5C246.5,377.5,246.4,377.3,246.2,377.1z M227.6,377.1c2-1.1,3.7-2.4,3.1-4.8
	c-0.5-2.2-2.3-2.9-4.3-3.1c-1.5-0.2-3-0.1-4.4,0.6c-3.1,1.5-3.7,4.7-1.3,7.2c0.4,0.4,0.9,0.8,1.5,1.3c-0.6,0.4-1,0.6-1.4,0.9
	c-3.1,2.3-2.6,6,0.9,7.4c2.5,1,5.1,0.9,7.5-0.4c3.1-1.7,3.3-5.5,0.5-7.7C229.1,378.1,228.5,377.7,227.6,377.1z M132.8,297.4
	c-2.6,7.6-2.7,14.4,0.7,21c0.8,1.5,1.6,4.1,3,3.7c1.4-0.4,1.7-3,1.7-4.9C138.5,310.4,136.4,304.1,132.8,297.4z M335.2,322.4
	c5.4-2.2,6.8-17.3,3.2-24.3C333.5,304.7,332.1,315.6,335.2,322.4z M260.2,384.1c0-0.2-0.1-0.4-0.1-0.5c0.6-0.5,1.3-1,1.9-1.5
	c2.2-1.8,4.4-3.6,5-6.6c0.6-2.7-0.7-5-3.3-5.9c-3-1-6.4,0.1-7.4,2.4c-0.3,0.8-0.6,1.6,0.2,2.3c0.5,0.5,1.2,0.5,1.9,0.2
	c0.9-0.5,0.7-1.2,0.3-1.9c-0.5-1,0.1-1.6,1-1.9c1.5-0.5,2.6,0,3.2,1.6c1,2.9,0.1,5.4-1.5,7.7c-1.3,1.9-2.9,3.4-4.7,4.8
	c-0.5,0.4-1.1,0.9-0.9,1.6c0.3,0.9,1.1,0.5,1.7,0.5c2.9,0,5.8,0,8.7,0c1.2,0,1.6-0.4,1.6-1.6c0-1.1-0.5-1.4-1.5-1.4
	C264.1,384.1,262.2,384.1,260.2,384.1z M265.1,328.3c0-2.8-0.1-5.6,0-8.4c0.1-1.6-0.6-2-2.1-1.9c-1.3,0.1-2.4-0.2-2.4,1.8
	c0.1,5.6,0.1,11.3,0,16.9c0,1.8,0.9,1.8,2.2,1.8c1.4,0,2.4-0.1,2.3-1.9C265,333.7,265.1,331,265.1,328.3z M213.2,386.8
	c-2.8-0.4-2.6-2.4-2.6-4.5c0.1-3.8,0-7.6,0-11.5c0-1.3-0.3-1.9-1.7-1.2c-1.4,0.7-2.9,1.2-4.4,1.8c-0.4,0.2-1.1,0.3-0.9,1
	c0.3,0.7,0.8,0.3,1.2,0.1c1.7-0.7,1.7,0.2,1.7,1.5c-0.1,2.7-0.1,5.3,0,8c0.1,2.2,0.3,4.4-2.8,4.8C207,386.8,210.1,386.8,213.2,386.8
	z"/>
<path fill="#18304D" d="M258.8,137.1c3,2.1,5.6,4.1,7.8,6.4c9.5,9.8,11.4,21.7,8.8,34.5c-3.8,19-17.2,30.6-37.2,32.5
	c-2.5,0.2-2.9,1-2.7,3.3c0.8,12.1,2.8,24,8.4,34.9c4,7.9,9.5,14.4,17.7,18.4c19.5,9.4,42-0.3,49-21.1c0.7-2,1.2-4,1.7-6
	c0.8-3.2,2.3-3.3,6.4-2.8c2.3,0.3,2.4,2.2,2.1,4.3c-0.7,4.5-1.6,9-3,13.4c-4.5,13.9-13.8,22.5-28.1,25.4
	c-15.2,3.1-30.2,2.1-44.7-3.4c-16.5-6.3-26.6-18.7-32.2-35.2c-3.1-9.2-4.5-18.7-4.9-28.4c-0.1-1.7-0.5-2.2-2.3-2.2
	c-9.5,0-14.6,5-14.6,14.6c0,10.6,0,21.1,0,31.7c0,8.8,5.5,14.3,14.4,14.3c0.5,0,1,0,1.5,0c4.9-0.3,4.5,1.1,4.3,5.5
	c0,1-0.7,1.7-1.8,1.8c-0.6,0.1-1.2,0-1.7,0c-19.4,0-38.8,0-58.2,0c-3.2,0-3.5-0.3-3.5-3.7c0-3.3,0.4-3.7,3.5-3.7
	c2.2,0,4.3,0.2,6.5-0.3c6.2-1.5,10.3-6.8,10.3-13.3c0-17.8,0-35.6,0-53.4c0-18.6,0-37.3,0-55.9c0-8.6-5.6-14.1-14.2-14.2
	c-0.7,0-1.5,0-2.2,0c-3.4,0-3.8-0.4-3.8-3.7c0-3.5,0.2-3.7,3.7-3.7c23.9,0,47.8,0,71.7,0c6.7,0,13.3,0.8,19.7,2.5
	c1.4,0.4,2.7,0.3,4.1-0.2c17.4-6,35.1-7.2,53.1-3.2c5.5,1.2,10.5,3.7,14.5,7.8c3.1,3.2,4.9,7,4.8,11.6c-0.1,6.3,0,12.6,0,19
	c0,2.6-1.1,3.8-3.4,3.9c-2.7,0.1-3.9-0.8-4.2-3.5c-0.4-4.1-1-8.1-2.3-12c-3.6-10.6-10.9-16.7-22-18c-8.5-1-17.1-1-25.5,1.5
	C259.8,136.7,259.5,136.8,258.8,137.1z M227.9,140c-8-2.4-15.8-2.5-23.7-2.4c-7.3,0.1-13.2,5.6-13.2,12.8c-0.1,17,0,33.9-0.1,50.9
	c0,1.2,0.3,1.8,1.7,1.7c4.5-0.1,9-0.1,13.5,0c1.4,0,1.6-0.5,1.7-1.7c0.1-3.8,0.2-7.6,0.5-11.5c1-12.3,3.3-24.3,9-35.5
	C220,149,223.4,144.3,227.9,140z M235.3,199.1c18.4-8.1,19.9-39.1,9.3-49C237.1,165.6,236.2,182.2,235.3,199.1z"/>
<path fill="#1E3552" d="M310.3,365.5c7.8-2.3,15.8-3.2,24.2-3.7c-4.6,6.6-15.9,10.4-23,8c-3.9-1.3-5.3-3.5-4.6-7.6
	c0.9-5.7,3.4-10.8,4.9-16.5c4.4,4.1,4.8,13.7-2,19.3c-0.2,0.3-0.9,0.3-0.5,0.7C309.6,366.1,310,365.8,310.3,365.5z"/>
<path fill="#1E3552" d="M137.3,362.2c8.5,0.2,16.8,0.9,25,3.4c-2.8-2.6-5-5.5-5.6-9.3c-0.7-3.9,0.3-7.4,2.8-11.3
	c1.8,6.7,4.9,12.3,5.3,18.8c0.2,2.3-1,3.9-3,5c-2.7,1.5-5.7,1.8-8.7,1.5C146.7,369.8,141.5,366.9,137.3,362.2z"/>
<path fill="#1E3552" d="M314.4,379c-7.2,2.3-14,2.8-20.9,1c-3.8-1-5-2.8-4.9-6.7c0.1-2.9,1.1-5.5,2.5-8c2.3-4.1,5.4-7.5,9-10.6
	c1.4,4.9-2.5,14.7-8.9,22C299.6,373.1,306.8,374.6,314.4,379z"/>
<path fill="#1E3552" d="M179.2,375.6c-4.8-6.1-8.4-12.6-8.4-21.3c5.8,5.1,10.6,10.2,11.9,17.5c0.9,4.9-0.8,7.5-5.7,8.5
	c-6.5,1.4-13,1-19.9-1.2c7.1-4,13.9-6,21.4-3c0.2,0.1,0.5,0.2,0.7,0.3c0.2,0.3,0.6,0.7,0.8,0.3c0.3-0.4-0.3-0.5-0.5-0.8
	C179.4,375.8,179.3,375.7,179.2,375.6z"/>
<path fill="#1E3552" d="M149,312.1c-0.5,7.8-1.9,14.6-6.5,20.5c-2.1,2.6-4.2,3-7.3,1.7c-3.3-1.3-5.7-3.7-7.9-6.3
	c-2.6-3.3-4.7-6.8-5.9-10.9c5,0.5,11.3,6,17.5,15.5C138.7,324,142,317.4,149,312.1z"/>
<path fill="#1E3552" d="M318.6,331c6.3,5,8.5,12.7,5.9,21.3c6.1-6.4,12.6-11.1,21.3-13.7c-4.3,7.7-8.9,14-17.5,15.8
	c-3.8,0.8-5.7-0.3-7.2-4.1C318.8,344.2,318.2,337.8,318.6,331z"/>
<path fill="#1E3552" d="M332.7,333.5c3.8-8.2,9.6-13.5,17.9-17.1c-2.7,7.6-6.3,13.7-13,17.4c-4,2.2-6.6,1.5-9.2-2.2
	c-3.9-5.6-5.2-12.1-5.8-18.9C328.2,314.7,332.8,323.8,332.7,333.5z"/>
<path fill="#1E3552" d="M146.5,350.7c-2.1-7.8,0.3-14.1,6.2-20c0.7,4.7,0.2,8.9-0.5,13.1c-0.4,2.2-0.9,4.4-1.8,6.5
	c-1.6,3.8-3.3,4.7-7.4,4.1c-1.1-0.2-2.3-0.5-3.3-1c-6.3-3-10.4-8-13.8-14.6c8.3,2.3,14.6,6.8,20.2,12.4c0.2,0.3,0.4,0.7,0.6,1
	C147,351.6,146.9,351.2,146.5,350.7z"/>
<path fill="#65BAE9" d="M250.4,338.1c-3,0.7-5.1,0.4-6.5-2.2c-0.7-1.3-1.8-2.4-2.6-3.6c-0.8-1.1-1.8-1.1-2.9-0.9
	c-1.2,0.2-0.7,1.3-0.8,2.1c-0.1,0.8-0.1,1.7,0,2.5c0.3,2-0.6,2.6-2.5,2.5c-1.3-0.1-1.9-0.3-1.9-1.8c0.1-5.7,0.1-11.3,0-17
	c0-1.3,0.4-1.8,1.7-1.7c2.2,0.1,4.5-0.1,6.7,0.1c2.8,0.2,5.2,1.4,6.3,4.2c1.1,2.8,0.5,5.4-1.9,7.4c-1,0.8-0.9,1.3-0.3,2.2
	C247.3,333.7,248.7,335.8,250.4,338.1z M240,321.8c-1.8-0.4-2.6,0.4-2.4,2.5c0.1,1.6-0.4,3.3,2.4,3.1c2.7-0.2,4.2-1,4.2-2.8
	C244.1,322.8,242.8,321.8,240,321.8z"/>
<path fill="#65BAE9" d="M181.3,328c0-2.7,0.1-5.5,0-8.2c0-1.4,0.5-1.9,1.9-1.9c2,0.1,4,0,6,0c4.3,0.1,7.1,2.5,7.2,6.3
	c0.1,4.1-2.4,6.7-6.8,7.1c-3.9,0.4-4,0.4-3.8,4.3c0.1,2.4-0.7,3-3,2.8c-1.2-0.1-1.5-0.6-1.5-1.7C181.3,333.8,181.3,330.9,181.3,328z
	 M187.7,327.4c1.5-0.1,2.7,0.2,3.6-0.8c0.7-0.8,1.2-1.8,0.7-3c-0.7-1.9-2.3-1.8-3.9-1.9c-2.3-0.2-2.8,0.7-2.7,2.8
	C185.4,326.5,185.4,328,187.7,327.4z"/>
<path fill="#65BAE9" d="M222.8,338.4c-2.4-0.2-4.6,0.8-5.5-2c-0.2-0.7-0.9-0.6-1.5-0.6c-1.8,0-3.7,0-5.5,0c-1,0-1.8,0.3-2.1,1.3
	c-0.2,0.7-0.6,1.2-1.4,1.2c-1.1,0-2.5,0.3-3.1-0.3c-0.8-0.7,0.4-1.8,0.7-2.6c2.4-5.5,4.8-11,7.2-16.4c0.3-0.6,0.3-1.4,1.2-1.4
	c0.7,0,1.1,0.5,1.3,1C216.9,325.1,219.8,331.5,222.8,338.4z M213,325.9c-0.3,0.6-0.6,0.9-0.7,1.3c-0.5,1.2-1,2.5-1.4,3.7
	c-0.2,0.5-0.3,1.3,0.5,1.4c1.2,0.1,2.7,0.5,3.6-0.2c0.8-0.6-0.2-1.7-0.5-2.5C214.1,328.4,213.6,327.2,213,325.9z"/>
<path fill="#65BAE9" d="M283.7,338.8c-2.4-0.1-4.9-1-6.7-3.1c-0.6-0.7-1.2-1.5,0-2.3c0.8-0.5,1.5-1.7,2.7-0.4c1.2,1.3,2.6,2,4.4,1.9
	c1.2-0.1,2.2-0.3,2.5-1.6c0.3-1.3-0.4-2-1.5-2.5c-1.4-0.7-2.9-1.3-4.3-2.1c-3.3-1.7-4.5-4.1-3.6-7.1c0.7-2.4,4.1-4.4,7.1-4.1
	c1.9,0.2,3.8,0.7,5.1,2.3c0.5,0.6,1.8,1.2,0.6,2.2c-0.8,0.6-1.7,2.2-3.1,0.7c-0.5-0.5-1.2-0.9-1.9-1.2c-1.4-0.4-2.8-0.4-3.5,1.1
	c-0.8,1.6,0.7,2.2,1.8,2.7c1.1,0.6,2.3,1,3.4,1.5c3.5,1.7,5,4.1,4.3,7C290.4,336.9,287.6,338.7,283.7,338.8z"/>
<path fill="#1E3552" d="M246.2,377.1c0.2,0.3,0.3,0.4,0.4,0.5c2.1,1.2,3.9,2.7,3.3,5.5c-0.6,2.7-2.6,3.8-5,4.1
	c-2.7,0.4-5.4,0.1-7.1-2.5c-1.4-2.1-0.4-4.2,2.6-6.2c0-0.1,0-0.4-0.1-0.4c-1.8-1.3-3.1-2.9-2.5-5.3c0.5-2,2.1-3,4-3.4
	c2.4-0.5,4.9-0.4,6.7,1.6C250.1,372.9,249.3,375,246.2,377.1z M246.2,383.3c0-1.7-2.4-4.4-3.7-4.1c-1.6,0.3-1.6,1.9-1.6,3.2
	c0,1.8,0.6,3.3,2.8,3.4C245.4,385.9,246,384.7,246.2,383.3z M245.9,373.5c0-1.7-0.3-3-2-3c-1.6,0-2.4,1.1-2.3,2.6
	c0,1.9,1.4,3.1,2.9,3.2C245.9,376.3,245.6,374.4,245.9,373.5z"/>
<path fill="#1E3552" d="M227.6,377.1c0.9,0.6,1.5,1,2.1,1.4c2.7,2.2,2.5,5.9-0.5,7.7c-2.4,1.3-4.9,1.4-7.5,0.4
	c-3.5-1.4-4-5.1-0.9-7.4c0.4-0.3,0.8-0.5,1.4-0.9c-0.6-0.5-1.1-0.9-1.5-1.3c-2.3-2.4-1.7-5.7,1.3-7.2c1.4-0.7,2.9-0.8,4.4-0.6
	c2,0.2,3.8,1,4.3,3.1C231.3,374.8,229.7,376,227.6,377.1z M227.7,383.4c0-1.7-2.4-4.3-3.7-4.1c-1.6,0.3-1.7,1.9-1.7,3.2
	c0,1.8,0.6,3.4,2.8,3.4C226.9,385.9,227.6,384.7,227.7,383.4z M227.5,373.4c-0.1-1.6-0.4-3-2.1-3c-1.6,0-2.3,1.1-2.3,2.6
	c0,1.9,1.4,3.1,2.9,3.2C227.4,376.3,227.2,374.4,227.5,373.4z"/>
<path fill="#1E3552" d="M132.8,297.4c3.6,6.7,5.7,13,5.4,19.9c-0.1,1.8-0.3,4.5-1.7,4.9c-1.4,0.4-2.3-2.2-3-3.7
	C130.1,311.8,130.2,305,132.8,297.4z"/>
<path fill="#1E3552" d="M335.2,322.4c-3.1-6.9-1.7-17.8,3.2-24.3C342,305.1,340.6,320.2,335.2,322.4z"/>
<path fill="#1E3552" d="M260.2,384.1c2,0,4,0,5.9,0c1,0,1.5,0.2,1.5,1.4c0,1.2-0.3,1.6-1.6,1.6c-2.9-0.1-5.8,0-8.7,0
	c-0.6,0-1.4,0.3-1.7-0.5c-0.3-0.8,0.3-1.2,0.9-1.6c1.8-1.4,3.4-2.9,4.7-4.8c1.6-2.4,2.5-4.9,1.5-7.7c-0.5-1.5-1.7-2-3.2-1.6
	c-0.9,0.3-1.5,0.9-1,1.9c0.4,0.7,0.6,1.4-0.3,1.9c-0.6,0.3-1.3,0.3-1.9-0.2c-0.8-0.7-0.5-1.5-0.2-2.3c1-2.3,4.4-3.4,7.4-2.4
	c2.6,0.9,3.9,3.1,3.3,5.9c-0.7,3-2.8,4.8-5,6.6c-0.6,0.5-1.3,1-1.9,1.5C260.1,383.7,260.1,383.9,260.2,384.1z"/>
<path fill="#65BAE9" d="M265.1,328.3c0,2.7-0.1,5.5,0,8.2c0.1,1.9-0.9,2-2.3,1.9c-1.3,0-2.2,0-2.2-1.8c0.1-5.6,0.1-11.3,0-16.9
	c0-2,1.1-1.7,2.4-1.8c1.4-0.1,2.1,0.3,2.1,1.9C265.1,322.6,265.1,325.4,265.1,328.3z"/>
<path fill="#1E3552" d="M213.2,386.8c-3.1,0-6.2,0-9.4,0c3.1-0.4,2.9-2.6,2.8-4.8c-0.1-2.7-0.1-5.3,0-8c0-1.3,0-2.2-1.7-1.5
	c-0.4,0.2-1,0.6-1.2-0.1c-0.2-0.7,0.5-0.8,0.9-1c1.4-0.6,2.9-1.2,4.4-1.8c1.4-0.6,1.7-0.1,1.7,1.2c-0.1,3.8,0.1,7.6,0,11.5
	C210.6,384.4,210.4,386.4,213.2,386.8z"/>
<path fill="#FEFFFF" d="M227.9,140c-4.5,4.4-7.9,9.1-10.6,14.3c-5.7,11.2-8,23.2-9,35.5c-0.3,3.8-0.5,7.6-0.5,11.5
	c0,1.3-0.3,1.8-1.7,1.7c-4.5-0.1-9-0.1-13.5,0c-1.4,0-1.7-0.5-1.7-1.7c0-17-0.1-33.9,0.1-50.9c0.1-7.3,6-12.7,13.2-12.8
	C212.1,137.4,219.9,137.6,227.9,140z"/>
<path fill="#FEFFFF" d="M235.3,199.1c0.9-16.9,1.8-33.5,9.3-49C255.2,160.1,253.7,191,235.3,199.1z"/>
<path fill="#FEFFFF" d="M310.3,365.5c-0.3,0.3-0.7,0.6-1,0.3c-0.4-0.5,0.3-0.5,0.5-0.7C310,365.2,310.1,365.3,310.3,365.5z"/>
<path fill="#FEFFFF" d="M179.5,375.9c0.2,0.3,0.8,0.4,0.5,0.8c-0.3,0.4-0.6,0-0.8-0.3C179.3,376.2,179.4,376.1,179.5,375.9z"/>
<path fill="#FEFFFF" d="M179.2,375.6c0.1,0.1,0.2,0.2,0.3,0.3c-0.1,0.1-0.2,0.3-0.3,0.4c-0.2-0.1-0.5-0.2-0.7-0.3
	C178.8,375.9,179,375.7,179.2,375.6z"/>
<path fill="#FEFFFF" d="M146.5,350.7c0.5,0.5,0.5,0.9,0.1,1.5c-0.2-0.3-0.4-0.7-0.6-1C146.2,351,146.3,350.9,146.5,350.7z"/>
<path fill="#FEFFFF" d="M240,321.8c2.8,0,4.1,1,4.1,2.8c0,1.8-1.5,2.6-4.2,2.8c-2.7,0.2-2.2-1.5-2.4-3.1
	C237.4,322.2,238.2,321.4,240,321.8z"/>
<path fill="#FEFFFF" d="M187.7,327.4c-2.2,0.6-2.3-0.9-2.3-2.9c-0.1-2.1,0.4-3,2.7-2.8c1.6,0.2,3.2,0,3.9,1.9c0.4,1.2,0,2.1-0.7,3
	C190.4,327.7,189.1,327.4,187.7,327.4z"/>
<path fill="#FEFFFF" d="M213,325.9c0.6,1.4,1.1,2.5,1.5,3.7c0.3,0.8,1.2,1.9,0.5,2.5c-1,0.8-2.4,0.4-3.6,0.2
	c-0.8-0.1-0.7-0.8-0.5-1.4c0.4-1.3,0.9-2.5,1.4-3.7C212.4,326.8,212.7,326.4,213,325.9z"/>
<path fill="#FEFFFF" d="M246.2,383.3c-0.1,1.4-0.8,2.5-2.6,2.5c-2.2,0-2.8-1.6-2.8-3.4c0-1.3,0-2.9,1.6-3.2
	C243.7,379,246.1,381.7,246.2,383.3z"/>
<path fill="#FEFFFF" d="M245.9,373.5c-0.3,0.9,0,2.8-1.5,2.7c-1.5-0.1-2.9-1.3-2.9-3.2c0-1.5,0.7-2.6,2.3-2.6
	C245.5,370.5,245.9,371.8,245.9,373.5z"/>
<path fill="#FEFFFF" d="M227.7,383.4c-0.1,1.4-0.8,2.5-2.6,2.5c-2.2,0-2.8-1.6-2.8-3.4c0-1.3,0-2.9,1.7-3.2
	C225.4,379,227.7,381.7,227.7,383.4z"/>
<path fill="#FEFFFF" d="M227.5,373.4c-0.3,1-0.1,2.9-1.5,2.8c-1.5-0.1-2.9-1.3-2.9-3.2c0-1.6,0.7-2.6,2.3-2.6
	C227.1,370.5,227.5,371.8,227.5,373.4z"/>
</svg>
