<?xml version="1.0" encoding="utf-8"?>
<!-- Generator: Adobe Illustrator 26.0.1, SVG Export Plug-In . SVG Version: 6.00 Build 0)  -->
<svg version="1.1"
	 id="svg3592" inkscape:output_extension="org.inkscape.output.svg.inkscape" sodipodi:version="0.32" xmlns:cc="http://creativecommons.org/ns#" xmlns:dc="http://purl.org/dc/elements/1.1/" xmlns:inkscape="http://www.inkscape.org/namespaces/inkscape" xmlns:rdf="http://www.w3.org/1999/02/22-rdf-syntax-ns#" xmlns:sodipodi="http://sodipodi.sourceforge.net/DTD/sodipodi-0.dtd" xmlns:svg="http://www.w3.org/2000/svg"
	 xmlns="http://www.w3.org/2000/svg" xmlns:xlink="http://www.w3.org/1999/xlink" x="0px" y="0px" viewBox="0 0 68 68"
	 style="enable-background:new 0 0 68 68;" xml:space="preserve">
<style type="text/css">
	.st0{fill:#005A9A;}
	.st1{fill:#E5A400;}
</style>
<defs>
	
		<inkscape:perspective  id="perspective3600" inkscape:persp3d-origin="372.04724 : 350.78739 : 1" inkscape:vp_x="0 : 526.18109 : 1" inkscape:vp_y="0 : 1000 : 0" inkscape:vp_z="744.09448 : 526.18109 : 1" sodipodi:type="inkscape:persp3d">
		</inkscape:perspective>
</defs>
<sodipodi:namedview  bordercolor="#666666" borderopacity="1.0" id="base" inkscape:current-layer="layer1" inkscape:cx="110.95594" inkscape:cy="59.0825" inkscape:document-units="px" inkscape:pageopacity="0.0" inkscape:pageshadow="2" inkscape:window-height="712" inkscape:window-width="1024" inkscape:window-x="-4" inkscape:window-y="-4" inkscape:zoom="2.9570075" pagecolor="#ffffff" showgrid="false">
	</sodipodi:namedview>
<path id="path157" class="st0" d="M41.6,20.5l0,15.5c8,0,13.3-7.1,13.3-14.7c0-4.2-1.9-10.1-7.1-10.1C42.9,11.2,41.6,16.7,41.6,20.5
	"/>
<path id="path159" class="st0" d="M15.9,59.9c2.1,1.7,3.7,2.4,8.9,2.4h1.8c4.8,0,6.1-1.4,6.1-4.8c0-3.1,0-15.4,0-15.4
	c-10.5-3-17.5-8.5-23.9-14.6c1.1-1.3,2.9-2.2,4.4-2.2c5.8,0,11.1,7.2,19.3,9.6l0-9.3c0-8.2,5.1-16.8,14.2-16.8
	c0.9,0,1.8,0.1,2.6,0.3c-4.2-2.2-9-3.5-14.1-3.5C18.3,5.5,4.6,19.2,4.6,36.1C4.6,45.6,9,54.3,15.9,59.9"/>
<path id="path161" class="st0" d="M56.8,14.6c1.1,2,1.7,4.4,1.7,6.9c0,9.6-6.9,19-16.6,20.6l0,20.2h3.5c5.3,0,7.2-1.1,9-2.4
	c6.9-5.6,11.3-14.2,11.3-23.7C65.7,27.7,62.3,20.1,56.8,14.6"/>
<path id="path163" class="st1" d="M3.7,23.6c1.9,1.6,4.5,1.6,5.8,0.1c1.3-1.5,0.8-4.1-1-5.7c-1.9-1.6-4.5-1.7-5.8-0.1
	C1.3,19.5,1.8,22,3.7,23.6"/>
</svg>
