<?xml version="1.0" encoding="utf-8"?>
<!-- Generator: Adobe Illustrator 26.0.1, SVG Export Plug-In . SVG Version: 6.00 Build 0)  -->
<svg version="1.1" id="Layer_1" xmlns="http://www.w3.org/2000/svg" xmlns:xlink="http://www.w3.org/1999/xlink" x="0px" y="0px"
	 viewBox="0 0 449.8 449.8" enable-background="new 0 0 449.8 449.8" xml:space="preserve">
<path fill="#5FAADD" d="M118.1,236.8c-27.1,0-54.3,0-81.4,0c-12.6,0-18.4-4.2-18.3-13.2c0.1-9.2,6.1-13.5,18.7-13.5
	c51.8,0,103.6-0.4,155.4,0.2c21.7,0.2,31.7-9.3,36.3-29.4c11.5-49.9,22.8-99.8,34.2-149.7c1.8-7.7,6.3-11.4,13.6-11.2
	c6.7,0.2,11.6,4.2,12.9,10.4c0.4,2.1,0,4-0.5,5.9c-10.8,47.8-21.8,95.6-32.5,143.5c-2.8,12.4-5.8,24.6-13.1,35.3
	c-9.7,14.3-23.4,21.6-40.5,21.7C174.7,237,146.4,236.8,118.1,236.8C118.1,236.8,118.1,236.8,118.1,236.8z"/>
<path fill="#FFE916" d="M258.3,223.4c0.5-19.2,10.1-32.4,26.6-40.5c36.7-18.1,73.6-35.9,110.4-53.8c11.7-5.7,21.8,0.1,21.4,12.2
	c-0.2,5.5-3.3,8.7-8,11c-20.5,9.9-41,19.9-61.5,29.9c-16.3,7.9-32.6,15.9-48.9,23.9c-9.6,4.7-14,13.6-11.6,22.9
	c1.5,5.9,5.4,9.8,10.8,12.4c32.2,15.5,64.5,31.1,96.7,46.6c5.2,2.5,10.5,5,15.7,7.6c7.3,3.6,9.5,10.2,6,17.6
	c-3.5,7.4-10,10-17.4,6.5c-38.4-18.5-76.9-36.7-115-55.8C267.2,255.8,259.2,241.4,258.3,223.4z"/>
<path fill="#B7D9AE" d="M107,391.9c-4.2-0.1-8.6-2.8-11-8.1c-2.2-5-1.3-9.4,2.2-13.8c31.1-38.8,62.1-77.7,93-116.6
	c5.6-7.1,12.7-8.4,19.1-3.4c6.6,5.2,7.5,12.7,1.8,19.7c-21.4,26.9-43,53.8-64.5,80.7c-9.6,12.1-19.3,24.2-28.9,36.3
	C116.3,390.2,113,392,107,391.9z"/>
<path fill="#B194C5" d="M228.9,265.9c-0.1-7.8,4.2-12.4,11.6-13.5c6.6-1,12.6,2.9,14.2,9.7c3.7,15.7,7.3,31.4,10.9,47.1
	c7.2,31.7,14.4,63.5,21.5,95.2c0.4,1.6,0.7,3.2,1,4.9c1.8,8.5-1.7,14.6-9.5,16.4c-8.2,1.9-14.1-1.8-16.1-10.5
	c-11.2-48.7-22.3-97.4-33.4-146.2C228.9,267.6,228.9,266.3,228.9,265.9z"/>
<path fill="#EB5C29" d="M91.7,59.5c-0.1-5.5,3.7-10.7,9.4-12.8c5.6-2.1,10.2-0.7,14.5,4.6c24.7,30.8,49.3,61.6,73.9,92.4
	c4.8,6,9.6,11.9,14.3,18c4.9,6.3,4.1,13.5-2.1,18.5c-6.2,5-13.1,4.3-18.3-2.2c-29.5-36.7-58.9-73.5-88.3-110.3
	C93.2,65.3,91.7,62.7,91.7,59.5z"/>
</svg>
