<?xml version="1.0" encoding="UTF-8"?>
<svg xmlns="http://www.w3.org/2000/svg" version="1.1" viewBox="0 0 1024 1024">
  <defs>
    <style>
      .cls-1 {
        fill: #1fc13d;
      }

      .cls-2 {
        fill: #e55955;
      }

      .cls-3 {
        fill: #514f4f;
      }

      .cls-4 {
        fill: #aa76e2;
      }

      .cls-5 {
        fill: #47aaf4;
      }

      .cls-6 {
        fill: #b2b2b2;
      }
    </style>
  </defs>
  <!-- Generator: Adobe Illustrator 28.7.1, SVG Export Plug-In . SVG Version: 1.2.0 Build 142)  -->
  <g>
    <g id="Layer_1">
      <g id="Layer_1-2" data-name="Layer_1">
        <path class="cls-3" d="M238.7,102c-75.5,0-136.7,61.2-136.7,136.7h0v546.7c0,75.5,61.2,136.7,136.7,136.7h546.7c75.5,0,136.7-61.2,136.7-136.7h0V238.7c0-75.5-61.2-136.7-136.7-136.7H238.7Z"/>
      </g>
      <path class="cls-4" d="M582.6,705.8c-7.2,13.3-14.5,26.7-21.6,40.1-5.8,10.8-11.4,21.5-17.5,32.9-4.3-14.1-8.7-27.4-12.5-40.9-1.2-4.2-3-5-7.2-4.5-23.1,2.5-46,.9-68.8-4-36.2-7.6-70-23.8-98.5-47.5-29.1-23.8-50.6-53.4-65.5-88.1-14.7-34.4-20.3-70.3-17.3-107.4,3.4-43.7,18.4-83.2,44.3-118.3,21.6-29.5,50.2-53.3,83-69.1l7.2,14c2.8,5.7,5.6,11.3,8.4,16.9,1.5,3.4,2.8,6.7,4.3,10.1-98.9,49.8-122.9,164.7-84.1,244.4,39.2,80.5,123.1,109.8,178.3,103-4-13.1-7.9-26.1-12.2-40.1,2.5,1.2,3.8,1.7,5,2.4,17.1,9,34.2,18.2,51.3,27.2,6.9,3.6,13.8,7,20.6,10.5l8.6,5.6c-1.9,4.1-3.9,8.5-5.9,12.8Z"/>
      <path class="cls-5" d="M577.8,301.2c1.7-3.9,3.4-7.8,5.4-12.6,10.4,5,20.7,9.5,30.6,14.9,18.2,10,34.8,22.4,49.4,37s25.2,27.9,34.6,44.2c2.1,3.6,3.8,4,7.4,2.4,8.3-3.6,16.7-6.8,26.4-10.7-8.2,19.4-15.8,37.6-23.5,55.8-1.1,2.3-2.3,4.6-3.3,7q-2.9,7-9.9,4.5c-.9-.3-1.9-.5-2.9-.7-1.3-.7-2.4-1.5-3.8-2.1-10.9-4.7-21.9-9.4-32.8-14.1-7.6-3.3-15.1-6.5-24-10.3l28.1-11.4c-.6-1.2-.9-1.9-1.2-2.5-13.1-20-29-37.5-49-50.7-12-7.9-25.1-14.2-37.9-20.9-3.1-1.6-3.6-2.9-2.3-5.8.9-2.2,1.5-4.3,2.1-6.5l6.5-17.5Z"/>
      <path class="cls-1" d="M719.1,531.8l11.4,1.5c-10.3,65.6-41.9,117.8-95.3,157.2l-6.8-8.7c-3.6-5.2-7.2-10.3-10.8-15.5l-8.9-13.4c42.8-31.3,68.2-73.2,76.3-125.5l15,1.8,19.2,2.6Z"/>
      <path class="cls-2" d="M464.1,293c-.3-2.4-.7-4.8-1-7.2-.3-2.2-.7-4.5-1.1-7.1,21.6-4,42.8-4.5,64.7-2.4-.3,4.6-.5,8.9-.8,13.3-.8,6.4-1.5,12.7-2.2,19.1-.4,4.4-.9,8.7-1.3,12.2l-52.4,2-2.4-10.8-3.4-19.2Z"/>
      <path class="cls-6" d="M719.1,531.8l-19.2-2.7c.4-4,1.1-7.9,1.4-12,1.6-25.3-1.7-50-9.3-74.2.9.2,2,.4,2.9.7q7,2.5,9.9-4.5c1-2.3,2.2-4.6,3.3-7,10.7,30,14.3,60.9,11.4,92.7-.3,2.3-.3,4.6-.4,7Z"/>
      <path class="cls-6" d="M464.1,293l3.4,19.1c-1.5,0-3.1.2-4.6.4-16,3.9-31.5,9.7-46.1,17.3-2.8-5.6-5.6-11.3-8.4-16.9,17.5-9.1,36.3-15.8,55.7-19.9Z"/>
      <path class="cls-6" d="M523.7,308.7c.8-6.4,1.5-12.7,2.2-19.1,17.7,1.6,35.1,5.2,51.8,11.5l-6.5,17.6c-15.2-5.7-31.2-9-47.5-10.1Z"/>
      <path class="cls-6" d="M617.6,666.3c3.6,5.2,7.2,10.3,10.8,15.5-13,9.2-27,16.9-41.7,22.9-1.3.5-2.8.9-4.1,1.2,2.1-4.3,4.1-8.7,6.2-13.1l-8.6-5.6c1.5-.8,3-1.5,4.6-2.3,10.9-6.2,21.9-12.4,32.9-18.6Z"/>
    </g>
  </g>
</svg>