<?xml version="1.0" encoding="UTF-8"?>
<svg xmlns="http://www.w3.org/2000/svg" version="1.1" viewBox="0 0 1024 1024">
  <defs>
    <style>
      .cls-1 {
        fill: #1d63ed;
      }

      .cls-2 {
        fill: #fff;
      }
    </style>
  </defs>
  <!-- Generator: Adobe Illustrator 28.7.1, SVG Export Plug-In . SVG Version: 1.2.0 Build 142)  -->
  <g>
    <g id="Layer_1">
      <g id="Layer_1-2" data-name="Layer_1">
        <path class="cls-2" d="M238.7,102c-75.5,0-136.7,61.2-136.7,136.7h0v546.7c0,75.5,61.2,136.7,136.7,136.7h546.7c75.5,0,136.7-61.2,136.7-136.7h0V238.7c0-75.5-61.2-136.7-136.7-136.7H238.7Z"/>
        <path class="cls-1" d="M713.8,458.2c-2.9-21-14.5-39.3-35.4-55.8l-12.1-8.2-8.1,12.2c-10.3,15.8-15.5,37.7-13.9,58.7.8,7.3,3.2,20.7,10.6,32.1-7.4,4.2-22.2,9.7-41.8,9.3H237.5l-.8,4.4c-3.5,21-3.5,87,38.7,137.5,32.1,38.4,80.2,58,142.9,58,136.1,0,236.7-63.4,284-178.8,18.5.4,58.5.1,79-39.6.5-.9,1.8-3.3,5.3-10.8l2-4.2-11.5-7.8c-12.6-8.2-41.2-11.3-63.4-7.1h0ZM537.9,317.5h-57.1v52.6h57.1v-52.6ZM537.9,380.6h-57.1v52.6h57.1v-52.6ZM470.3,380.6h-57.1v52.6h57.1v-52.6ZM402.9,380.6h-57.1v52.6h57.1v-52.6ZM335.4,443.8h-57.1v52.6h57.1v-52.6ZM402.9,443.8h-57.1v52.6h57.1v-52.6ZM470.3,443.8h-57.1v52.6h57.1v-52.6ZM537.9,443.8h-57.1v52.6h57.1v-52.6ZM605.5,443.8h-57.1v52.6h57.1v-52.6Z"/>
      </g>
    </g>
  </g>
</svg>