<?xml version="1.0" encoding="UTF-8"?>
<svg xmlns="http://www.w3.org/2000/svg" version="1.1" viewBox="0 0 1024 1024">
  <defs>
    <style>
      .cls-1 {
        fill: #514f4f;
      }

      .cls-2 {
        fill: #73c0ff;
      }
    </style>
  </defs>
  <!-- Generator: Adobe Illustrator 28.7.1, SVG Export Plug-In . SVG Version: 1.2.0 Build 142)  -->
  <g>
    <g id="Layer_1">
      <g id="Layer_1-2" data-name="Layer_1">
        <path class="cls-1" d="M238.7,102c-75.5,0-136.7,61.2-136.7,136.7h0v546.7c0,75.5,61.2,136.7,136.7,136.7h546.7c75.5,0,136.7-61.2,136.7-136.7h0V238.7c0-75.5-61.2-136.7-136.7-136.7H238.7Z"/>
        <g>
          <path id="Main" d="M547.8,408.1h67.9l-.8,346.8h-205.4v-69.2h138.3v-277.6ZM686.1,408.1h68l-.8,208h-66.8l-.4-208ZM409.1,408.1h68l-.8,208h-66.8l-.4-208ZM338.7,753.6l-68.7.9.9-485.3,482.8.9v68.8l-413.8-.2-1.1,415Z"/>
          <path id="Main-2" data-name="Main" class="cls-2" d="M547.8,408.1h67.9l-.8,346.8h-205.4v-69.2h138.3v-277.6ZM686.1,408.1h68l-.8,208h-66.8l-.4-208ZM409.1,408.1h68l-.8,208h-66.8l-.4-208ZM338.7,753.6l-68.7.9.9-485.3,482.8.9v68.8l-413.8-.2-1.1,415Z"/>
        </g>
      </g>
    </g>
  </g>
</svg>