<?xml version="1.0" encoding="UTF-8"?>
<svg xmlns="http://www.w3.org/2000/svg" xmlns:xlink="http://www.w3.org/1999/xlink" version="1.1" viewBox="0 0 1024 1024">
  <defs>
    <style>
      .cls-1 {
        fill: none;
      }

      .cls-2 {
        fill: #514f4f;
      }

      .cls-3 {
        fill: #b1ef07;
      }

      .cls-4 {
        clip-path: url(#clippath);
      }
    </style>
    <clipPath id="clippath">
      <polygon class="cls-1" points="515 787.4 756.9 647.6 756.9 368.1 515 228.4 273 368.1 273 647.6 515 787.4"/>
    </clipPath>
  </defs>
  <!-- Generator: Adobe Illustrator 28.7.1, SVG Export Plug-In . SVG Version: 1.2.0 Build 142)  -->
  <g>
    <g id="Layer_1">
      <g id="Layer_1-2" data-name="Layer_1">
        <g id="Layer_1-2">
          <path class="cls-2" d="M238.7,102c-75.5,0-136.7,61.2-136.7,136.7h0v546.7c0,75.5,61.2,136.7,136.7,136.7h546.7c75.5,0,136.7-61.2,136.7-136.7h0V238.7c0-75.5-61.2-136.7-136.7-136.7H238.7Z"/>
          <g class="cls-4">
            <g>
              <path class="cls-3" d="M522.9,791.9l-249.9-144.3v-288.6l249.9,144.3v288.6ZM288.7,638.5l218.5,126.1v-252.3l-218.5-126.1v252.3Z"/>
              <rect class="cls-3" x="317.4" y="398.2" width="15.7" height="265.6"/>
              <rect class="cls-3" x="388.9" y="440.9" width="15.7" height="270.4"/>
              <rect class="cls-3" x="389.5" y="439.3" width="15.7" height="270.4" transform="translate(-298.9 631.3) rotate(-60)"/>
              <polygon class="cls-3" points="397.9 575.5 325.4 533.6 325.4 668.7 397.9 710.6 397.9 575.5"/>
              <g>
                <path class="cls-3" d="M515,517l-249.9-144.3,249.9-144.3,249.9,144.3-249.9,144.3h0ZM296.5,372.7l218.5,126.1,218.5-126.1-218.5-126.1-218.5,126.1Z"/>
                <path class="cls-3" d="M437.7,326.2c-4.1,2.4-10.6,2.4-14.7,0s-4.1-6.1,0-8.4,10.6-2.4,14.7,0,4.1,6.1,0,8.4Z"/>
                <path class="cls-3" d="M387,393.8c-4.1,2.4-10.6,2.4-14.7,0s-4.1-6.1,0-8.4c4.1-2.4,10.6-2.4,14.7,0s4.1,6.1,0,8.4Z"/>
                <path class="cls-3" d="M623.6,343.1c-4.1,2.4-10.6,2.4-14.7,0s-4.1-6.1,0-8.4,10.6-2.4,14.7,0,4.1,6.1,0,8.4Z"/>
                <path class="cls-3" d="M572.9,326.2c-4.1,2.4-10.6,2.4-14.7,0-4.1-2.4-4.1-6.1,0-8.4s10.6-2.4,14.7,0c4.1,2.4,4.1,6.1,0,8.4Z"/>
                <path class="cls-3" d="M488.4,410.7c-4.1,2.4-10.6,2.4-14.7,0s-4.1-6.1,0-8.4,10.6-2.4,14.7,0,4.1,6.1,0,8.4Z"/>
                <path class="cls-3" d="M674.3,376.9c-4.1,2.4-10.6,2.4-14.7,0-4.1-2.4-4.1-6.1,0-8.4s10.6-2.4,14.7,0,4.1,6.1,0,8.4Z"/>
                <path class="cls-3" d="M640.5,410.7c-4.1,2.4-10.6,2.4-14.7,0s-4.1-6.1,0-8.4,10.6-2.4,14.7,0,4.1,6.1,0,8.4Z"/>
                <path class="cls-3" d="M505.3,461.4c-4.1,2.4-10.6,2.4-14.7,0s-4.1-6.1,0-8.4,10.6-2.4,14.7,0,4.1,6.1,0,8.4Z"/>
                <path class="cls-3" d="M556,376.9c-4.1,2.4-10.6,2.4-14.7,0-4.1-2.4-4.1-6.1,0-8.4,4.1-2.4,10.6-2.4,14.7,0s4.1,6.1,0,8.4Z"/>
                <path class="cls-3" d="M522.2,275.5c-4.1,2.4-10.6,2.4-14.7,0s-4.1-6.1,0-8.4c4.1-2.4,10.6-2.4,14.7,0,4.1,2.4,4.1,6.1,0,8.4Z"/>
              </g>
              <g>
                <path class="cls-3" d="M507,791.9v-288.4l249.9-144.3v288.4l-249.9,144.3h0ZM522.9,512.4v252.3l218.5-126.1v-252.3l-218.5,126.1h0Z"/>
                <path class="cls-3" d="M578.8,676.5c-12,0-21.1-6.9-25.3-19.3l-18.4-53.1c-1.4-3.9-3.4-6.4-5.9-7.8-3.7-1.9-8.3-.8-11.5.3l-5.2-14.9c8.6-3,16.9-3,23.7.2,6.4,3,11.3,9,14,16.7l18.4,53.1c2.9,8.1,7.6,9,11.3,8.6,13.2-.7,36-19.1,43.1-48.2l18.4-74.3c7.9-31.9,33.8-59,57.6-60,12.8-.5,22.5,6.4,26.9,19.3l18.4,53.1c1.5,4.2,3.7,6.9,6.8,8.1,4.1,1.5,10.1.3,16.7-3.4l7.8,13.7c-10.6,6.3-21.3,7.8-30.1,4.6-5.2-1.9-12.2-6.6-16.1-17.6l-18.4-53.1c-2.9-8.1-7.8-8.8-11.3-8.6-13.2.7-36,19.3-43.1,48.2l-18.4,74.3c-7.9,31.9-33.8,59-57.6,60h-1.8Z"/>
              </g>
            </g>
          </g>
        </g>
      </g>
    </g>
  </g>
</svg>