<?xml version="1.0" encoding="UTF-8"?>
<svg xmlns="http://www.w3.org/2000/svg" xmlns:xlink="http://www.w3.org/1999/xlink" version="1.1" viewBox="0 0 1024 1024">
  <defs>
    <style>
      .cls-1 {
        fill: #404040;
      }

      .cls-2 {
        fill: none;
      }

      .cls-3 {
        fill: #3f3f3f;
      }

      .cls-4 {
        fill: #35b013;
      }

      .cls-5 {
        fill: #0b1707;
      }

      .cls-6 {
        fill: #b7fe97;
      }

      .cls-7 {
        fill: #414141;
      }

      .cls-8 {
        fill: #727272;
      }

      .cls-9 {
        fill: url(#linear-gradient);
      }

      .cls-10 {
        fill: #3e3e3e;
      }

      .cls-11 {
        fill: #3d3d3d;
      }

      .cls-12 {
        fill: #defecf;
      }

      .cls-13 {
        fill: #fff;
      }

      .cls-14 {
        fill: #676767;
      }

      .cls-15 {
        fill: #72f851;
      }
    </style>
    <linearGradient id="linear-gradient" x1="575.5" y1="472.5" x2="575.5" y2="472.5" gradientTransform="translate(0 756) scale(1 -1)" gradientUnits="userSpaceOnUse">
      <stop offset="0" stop-color="#243746"/>
      <stop offset="0" stop-color="#223442"/>
      <stop offset=".2" stop-color="#1c2b36"/>
      <stop offset=".3" stop-color="#121b22"/>
      <stop offset=".4" stop-color="#030507"/>
      <stop offset=".4" stop-color="#000"/>
    </linearGradient>
  </defs>
  <!-- Generator: Adobe Illustrator 28.7.1, SVG Export Plug-In . SVG Version: 1.2.0 Build 142)  -->
  <g>
    <g id="Layer_1">
      <g id="Layer_1-2" data-name="Layer_1">
        <path class="cls-13" d="M238.7,102c-75.5,0-136.7,61.2-136.7,136.7h0v546.7c0,75.5,61.2,136.7,136.7,136.7h546.7c75.5,0,136.7-61.2,136.7-136.7h0V238.7c0-75.5-61.2-136.7-136.7-136.7H238.7Z"/>
        <rect class="cls-2" x="232" y="232" width="559.9" height="559.9"/>
        <path class="cls-9" d="M575.5,283.5"/>
      </g>
      <path class="cls-12" d="M454.4,254.7c89.8.2,164.9,72.9,164,166.2-.9,89.3-73.3,162.9-165.1,162.5-90.2-.4-165.5-73.8-163.6-168.4,1.8-87.4,73.3-160.5,164.7-160.3ZM557.5,417.6c1.3-56.7-46.2-105.3-104-105.3s-106,46.2-106.4,104.9c-.2,59.8,48,105.1,105.1,105.7,57.2.6,106.8-48.2,105.3-105.3Z"/>
      <path class="cls-14" d="M546.8,662c.7.1,1.5.7,2.1.6,6.2-2.3,12.2-4.6,18.4-6.9,2.7-1,5.2-1.8,7.9-2.8,6.8-2.1,13.5-4.2,20.3-6.3,2.7-.6,5.3-1.3,8-1.8,6.8-1.4,13.5-3,20.4-4.4,2.7-.7,5.3-1.4,8-2,6.9-.6,13.8-1.1,20.8-1.7h8.3c6.8,0,13.4-.1,20.1-.1,2.7.7,5.3,1.3,8.2,2,5.3,1,10.7,2.1,16,3.1,1.3.3,2.7.1,3.9.1,2.5,1,5.1,2,7.6,3.1,6.3,2.4,12.8,4.8,19.1,7,2.3,1.3,4.6,2.5,6.9,3.9,5.5,3.5,10.8,7.2,16.3,10.6.3.1,1.1-.3,1.7-.4,0,3.9,3,4.8,5.9,5.3,2.3,2.4,4.5,4.8,7.2,7.6-2.1,2.3-4.2,4.6-6.3,6.9-8.2-5.6-15.8-11.8-24.1-16.8-30.7-18.3-64-24.9-99.5-21-32.8,3.5-63.3,14.8-94.2,25.3-27.6,9.6-55.2,19-83.2,27.3-18.9,5.5-38.4,8.2-58.1,8.9-35,1.1-67.6-7.7-98.3-23.9-16.8-8.9-32.9-19-50-28.9,2.3-3.5,4.1-6.3,5.9-9.1,3.5,1.8,6.8,3.5,9.9,5.2,2.4,1.5,4.8,3.1,7.2,4.6,6.3,3.5,12.8,7.2,19.1,10.7,2.4,1.5,4.8,3.2,7.2,4.8,6.1,3.1,12.1,6.3,18.3,9.3.6.3,1.4-.1,2.1-.3,2.7,1.3,5.3,2.5,7.9,3.7,7.2,2.4,14.2,4.9,21.4,7.3,3,.6,5.9,1.3,8.9,1.8,7.5.8,14.8,1.7,22.2,2.7,3,.3,6.1.7,9,1,7.5-.3,14.9-.6,22.2-1,3,0,5.9,0,8.7-.1.7-.3,1.4-.6,2.1-.8,6.6-1.3,13.2-2.4,19.8-3.7,2.8-.8,5.6-1.8,8.4-2.7,7-1.5,14.2-3.1,21.3-4.6,2.7-1.3,5.3-2.5,8-3.8,1.3,0,2.7.4,3.8,0,5.8-2,11.5-4.2,17.3-6.3,2.7-1,5.5-1.8,8.2-2.8,6.6-2.5,13.2-4.9,19.8-7.5,2.4-.6,4.9-1.8,7.5-3.1Z"/>
      <path class="cls-1" d="M689.2,638.5c-2.7-.7-5.3-1.3-8.2-2,.8-9.1,1.7-18.4,2.7-28.2,3.2.4,6.2.7,9.4,1.1-1.3,9.9-2.7,19.4-3.9,29Z"/>
      <path class="cls-1" d="M742.7,655.7c-2.3-1.3-4.6-2.5-6.9-3.9,3.9-8.3,7.9-16.6,12.1-25.6,2.8,1.4,5.5,2.7,8.6,4.4-4.6,8.6-9.1,16.9-13.8,25.2Z"/>
      <path class="cls-3" d="M716.7,644.7c-2.5-1-5.1-2-7.6-3.1,2.5-8.9,5.1-17.7,7.6-27,3.1,1,5.9,1.8,9.1,2.8-3.1,9.3-6.1,18.3-9.1,27.3Z"/>
      <path class="cls-7" d="M575.2,652.9c-2.7,1-5.2,1.8-7.9,2.8-3.1-8.9-6.1-17.7-9.3-27.2,2.8-1,5.5-1.8,8.4-2.8,3,9.3,5.8,18.3,8.7,27.2Z"/>
      <path class="cls-3" d="M631.9,638.2c-2.7.7-5.3,1.4-8,2-1.7-9.4-3.4-18.7-5.2-28.6,3.1-.6,5.9-1.1,9-1.7,1.4,9.9,2.8,19,4.2,28.3Z"/>
      <path class="cls-3" d="M766.7,671.3c-3.1-.6-5.9-1.4-5.9-5.3,5.2-7.5,10.6-14.8,16-22.5,2.7,2,5.1,3.7,7.7,5.6-6.1,7.5-12,14.8-17.9,22.2Z"/>
      <path class="cls-1" d="M603.5,644.7c-2.7.6-5.3,1.3-8,1.8-2.5-8.9-5.2-17.7-7.9-27.2,2.8-.8,5.5-1.7,8.7-2.7,2.4,9.6,4.8,18.9,7.2,28Z"/>
      <path class="cls-1" d="M546.8,662c-2.5,1.3-5.1,2.4-7.5,3.7-3.4-8.9-6.6-17.6-10.1-26.7,2.7-1,5.2-2,8.2-3.1,3.2,8.9,6.3,17.6,9.4,26.2Z"/>
      <path class="cls-1" d="M490.1,682.1c-2.7,1.3-5.3,2.5-8,3.8-2.7-9.3-5.2-18.6-8-28,2.5-.8,4.8-1.5,7.7-2.5,2.8,9,5.6,17.9,8.3,26.7Z"/>
      <path class="cls-1" d="M460.6,690.7c-2.8.8-5.6,1.8-8.4,2.7-2-9.3-3.9-18.6-5.9-28.3,2.5-.6,4.9-1.1,7.9-1.8,2.3,9.3,4.4,18.3,6.5,27.4Z"/>
      <path class="cls-1" d="M519.3,673.1c-2.7,1-5.5,1.8-8.2,2.8-3.1-8.9-6.3-17.6-9.6-27,2.7-1,5.2-1.8,8-2.8,3.2,9.1,6.5,18.2,9.7,27Z"/>
      <path class="cls-1" d="M283.1,657.5c-2.4-1.5-4.8-3.1-7.2-4.6,5.1-7.9,10-15.9,15.3-24.1,2.4,1.5,4.5,2.8,7.2,4.5-5.2,8.2-10.3,16.2-15.3,24.2Z"/>
      <path class="cls-3" d="M309.6,673.1c-2.4-1.5-4.8-3.2-7.2-4.8,4.5-8,9-16,13.8-24.5,2.4,1.4,4.5,2.7,7,4.1-4.6,8.4-9.1,16.8-13.7,25.2Z"/>
      <path class="cls-1" d="M337.8,685.9c-2.7-1.3-5.3-2.5-7.9-3.7,3.7-8.4,7.3-16.9,11.1-25.6,2.5,1.1,4.8,2,7.3,3.1-3.5,8.7-7,17.5-10.6,26.2Z"/>
      <path class="cls-3" d="M430.4,697.8c-3,0-5.9,0-8.7.1-.8-9.4-1.7-18.9-2.5-28.9,2.7-.1,4.9-.4,7.9-.6,1.3,9.4,2.4,18.7,3.5,27.9-.1.6-.1,1-.1,1.4Z"/>
      <path class="cls-11" d="M661.1,636.5h-8.3c-.6-9.4-1.1-19-1.7-28.9h10v28.9Z"/>
      <path class="cls-3" d="M368.2,695.1c-3-.6-5.9-1.3-8.9-1.8,2.4-9.1,4.6-18.2,7.2-27.6,2.5.6,4.9,1.1,7.3,1.7-2,9.4-3.8,18.6-5.6,27.7Z"/>
      <path class="cls-10" d="M399.3,698.8c-3-.3-6.1-.7-9-1,.6-9.3,1.1-18.4,1.7-28.2,2.7.1,4.9.3,7.3.4,0,9.7,0,19.3,0,28.7Z"/>
      <path class="cls-8" d="M430.4,697.8v-1.4c.7.1,1.4.4,2,.6-.6.3-1.3.6-2,.8Z"/>
      <path class="cls-6" d="M557.5,417.6c1.5,57.1-48,105.8-105.1,105.3-57.1-.6-105.3-45.8-105.1-105.7.2-58.7,46.2-105.1,106.4-104.9,57.6,0,105.1,48.6,103.8,105.3ZM454.4,352.8c-36.8-.4-66.1,28.5-66.6,65.3-.6,36.8,28.7,66.6,65.7,67,36.8.4,66.4-29.1,66.6-66.1.2-36.6-28.7-65.9-65.7-66.3Z"/>
      <path class="cls-4" d="M454.4,352.8c36.8.4,65.9,29.5,65.7,66.3-.2,37-29.8,66.4-66.6,66.1-37-.4-66.3-30-65.7-67,.6-36.6,30-65.5,66.6-65.3ZM511.1,419.3c1.5-32.4-25.8-58.2-57.1-57.8-32.8.2-57.1,24.8-57.6,57.1-.4,32.2,26.5,57.6,57.4,57.8,30.9.4,59.3-27.8,57.2-57.1Z"/>
      <path class="cls-15" d="M511.1,419.3c2,29.1-26.1,57.4-57.1,57.1-30.9-.4-58-25.6-57.4-57.8.4-32.4,24.8-56.9,57.6-57.1,30.9-.2,58.2,25.4,56.9,57.8ZM441.5,392.6v47.7c2-.2,3.7-.2,5.9-.4v-21h19.5c-.2-2-.2-3.5-.4-5.3h-18.8v-16h22.3v-5c-9.4,0-18.6,0-28.5,0Z"/>
      <path class="cls-5" d="M441.5,392.6h28.7v5h-22.3v16h18.8c.2,1.8.2,3.3.4,5.3h-19.5v21c-2.4.2-4,.2-5.9.4-.2-16.2-.2-31.8-.2-47.7Z"/>
    </g>
  </g>
</svg>