<?xml version="1.0" encoding="UTF-8"?>
<svg xmlns="http://www.w3.org/2000/svg" version="1.1" viewBox="0 0 1024 1024">
  <defs>
    <style>
      .cls-1 {
        fill: #6a1b9a;
      }

      .cls-1, .cls-2, .cls-3, .cls-4, .cls-5, .cls-6, .cls-7, .cls-8, .cls-9 {
        stroke: #dce0df;
        stroke-linejoin: round;
        stroke-width: 1.3px;
      }

      .cls-2 {
        fill: #3367d6;
      }

      .cls-3 {
        fill: #9c27b0;
      }

      .cls-4 {
        fill: #26a69a;
      }

      .cls-10 {
        fill: #fff;
      }

      .cls-5 {
        fill: #00695c;
      }

      .cls-6 {
        fill: #ea80fc;
      }

      .cls-7 {
        fill: #2a56c6;
      }

      .cls-8 {
        fill: #00796b;
      }

      .cls-9 {
        fill: #5e97f6;
      }
    </style>
  </defs>
  <!-- Generator: Adobe Illustrator 28.7.1, SVG Export Plug-In . SVG Version: 1.2.0 Build 142)  -->
  <g>
    <g id="Layer_1">
      <path class="cls-10" d="M238.7,102c-75.5,0-136.7,61.2-136.7,136.7h0v546.7c0,75.5,61.2,136.7,136.7,136.7h546.7c75.5,0,136.7-61.2,136.7-136.7h0V238.7c0-75.5-61.2-136.7-136.7-136.7H238.7Z"/>
      <g id="Layer_2">
        <g id="Layer_1-2">
          <polygon class="cls-9" points="285.3 487.4 252.9 543.6 317.7 543.6 350.1 487.4 285.3 487.4"/>
          <polygon class="cls-9" points="220.5 599.7 252.9 543.6 317.7 543.6 285.3 599.7 220.5 599.7"/>
          <polygon class="cls-9" points="382.4 543.6 317.7 543.6 285.3 599.7 350.1 599.7 382.4 543.6"/>
          <polygon class="cls-9" points="447.2 543.6 382.4 543.6 350.1 599.7 414.8 599.7 447.2 543.6"/>
          <polygon class="cls-9" points="414.8 487.4 382.4 543.6 447.2 543.6 479.6 487.4 414.8 487.4"/>
          <polygon class="cls-9" points="447.2 431.3 414.8 487.4 479.6 487.4 512 431.3 447.2 431.3"/>
          <polygon class="cls-9" points="479.6 375.3 447.2 431.3 512 431.3 544.4 375.3 479.6 375.3"/>
          <polygon class="cls-9" points="512 319.2 479.6 375.3 544.4 375.3 576.8 319.2 512 319.2"/>
          <polygon class="cls-7" points="220.5 599.7 252.9 655.8 317.7 655.8 285.3 599.7 220.5 599.7"/>
          <polygon class="cls-7" points="382.4 655.8 317.7 655.8 285.3 599.7 350.1 599.7 382.4 655.8"/>
          <polygon class="cls-7" points="447.2 655.8 382.4 655.8 350.1 599.7 414.8 599.7 447.2 655.8"/>
          <polygon class="cls-8" points="479.6 599.7 447.2 543.6 414.8 599.7 447.2 655.8 479.6 599.7"/>
          <polygon class="cls-8" points="544.4 487.4 512 431.3 479.6 487.4 544.4 487.4"/>
          <polygon class="cls-8" points="544.4 375.3 512 431.3 544.4 487.4 576.8 431.3 544.4 375.3"/>
          <polygon class="cls-2" points="382.4 543.6 350.1 487.4 317.7 543.6 382.4 543.6"/>
          <polygon class="cls-4" points="544.4 487.4 479.6 487.4 447.2 543.6 512 543.6 544.4 487.4"/>
          <polygon class="cls-4" points="609.2 487.4 544.4 487.4 512 543.6 576.8 543.6 609.2 487.4"/>
          <polygon class="cls-3" points="673.9 375.3 641.6 319.2 609.2 375.3 641.6 431.3 673.9 375.3"/>
          <polygon class="cls-3" points="706.3 431.3 673.9 375.3 641.6 431.3 673.9 487.4 706.3 431.3"/>
          <polygon class="cls-3" points="738.7 487.4 706.3 431.3 673.9 487.4 706.3 543.6 738.7 487.4"/>
          <polygon class="cls-3" points="771.1 543.6 738.7 487.4 706.3 543.6 738.7 599.7 771.1 543.6"/>
          <polygon class="cls-3" points="803.5 599.7 771.1 543.6 738.7 599.7 771.1 655.8 803.5 599.7"/>
          <polygon class="cls-3" points="771.1 319.2 738.7 375.3 771.1 431.3 803.5 375.3 771.1 319.2"/>
          <polygon class="cls-3" points="706.3 431.3 738.7 375.3 771.1 431.3 738.7 487.4 706.3 431.3"/>
          <polygon class="cls-3" points="673.9 487.4 641.6 543.6 673.9 599.7 706.3 543.6 673.9 487.4"/>
          <polygon class="cls-3" points="641.6 655.8 609.2 599.7 641.6 543.6 673.9 599.7 641.6 655.8"/>
          <polygon class="cls-1" points="576.8 655.8 544.4 599.7 609.2 599.7 641.6 655.8 576.8 655.8"/>
          <polygon class="cls-5" points="512 543.6 447.2 543.6 479.6 599.7 544.4 599.7 512 543.6"/>
          <polygon class="cls-5" points="576.8 543.6 512 543.6 544.4 599.7 576.8 543.6"/>
          <polygon class="cls-5" points="576.8 431.3 609.2 487.4 673.9 487.4 641.6 431.3 576.8 431.3"/>
          <polygon class="cls-5" points="609.2 375.3 544.4 375.3 576.8 431.3 641.6 431.3 609.2 375.3"/>
          <polygon class="cls-5" points="771.1 655.8 738.7 599.7 673.9 599.7 706.3 655.8 771.1 655.8"/>
          <polygon class="cls-5" points="706.3 543.6 673.9 599.7 738.7 599.7 706.3 543.6"/>
          <polygon class="cls-6" points="641.6 319.2 576.8 319.2 544.4 375.3 609.2 375.3 641.6 319.2"/>
          <polygon class="cls-6" points="641.6 543.6 576.8 543.6 544.4 599.7 609.2 599.7 641.6 543.6"/>
          <polygon class="cls-6" points="673.9 487.4 609.2 487.4 576.8 543.6 641.6 543.6 673.9 487.4"/>
          <polygon class="cls-6" points="771.1 319.2 706.3 319.2 673.9 375.3 738.7 375.3 771.1 319.2"/>
          <polygon class="cls-6" points="706.3 431.3 673.9 375.3 738.7 375.3 706.3 431.3"/>
        </g>
      </g>
    </g>
  </g>
</svg>