<?xml version="1.0" encoding="UTF-8"?>
<svg xmlns="http://www.w3.org/2000/svg" xmlns:xlink="http://www.w3.org/1999/xlink" version="1.1" viewBox="0 0 1024 1024">
  <defs>
    <style>
      .cls-1 {
        fill: none;
      }

      .cls-2 {
        fill: #514f4f;
      }

      .cls-3 {
        fill: url(#linear-gradient);
      }

      .cls-4 {
        fill: #fff;
      }

      .cls-5 {
        fill: #00a3e0;
      }
    </style>
    <linearGradient id="linear-gradient" x1="575.5" y1="551.5" x2="575.5" y2="551.5" gradientTransform="translate(0 -268)" gradientUnits="userSpaceOnUse">
      <stop offset="0" stop-color="#243746"/>
      <stop offset="0" stop-color="#223442"/>
      <stop offset=".2" stop-color="#1c2b36"/>
      <stop offset=".3" stop-color="#121b22"/>
      <stop offset=".4" stop-color="#030507"/>
      <stop offset=".4" stop-color="#000"/>
    </linearGradient>
  </defs>
  <!-- Generator: Adobe Illustrator 28.7.1, SVG Export Plug-In . SVG Version: 1.2.0 Build 142)  -->
  <g>
    <g id="Layer_1">
      <path class="cls-2" d="M238.7,102c-75.5,0-136.7,61.2-136.7,136.7h0v546.7c0,75.5,61.2,136.7,136.7,136.7h546.7c75.5,0,136.7-61.2,136.7-136.7h0V238.7c0-75.5-61.2-136.7-136.7-136.7H238.7Z"/>
      <path class="cls-5" d="M614.4,586.2s167.7-123.7,99.8-203.7c-78.8-92.8-299.5,104-323.7,64-24.1-40,195.9-135.9,219.8-151.9,2.6-1.7,3.3-5,2.6-8.9l25.5-3-15.9-8,4.1-15.9-18.5,14.4c-6.9-12.4-18.7-25.8-25.5-30.5-24-15.9-67.9-12.1-131.8,19.9-63.9,32-212,131.8-136.2,243.7,67.9,99.8,263.1-71.7,295.7-44.1,27.9,24-187.7,171.8-187.7,171.8h91.9c-15.9,40-91.9,155.9-91.9,155.9l276.6-199.9c-29-4.3-84.9-4.1-84.9-4.1ZM539.2,254.8c9.8-.7,18.3,6.9,19.1,16.6.7,9.8-6.9,18.3-16.6,19.1-9.8.7-18.3-6.9-19.1-16.6-.9-9.8,6.8-18.3,16.6-19.1Z"/>
      <rect class="cls-1" x="232" y="232" width="559.9" height="559.9"/>
      <path class="cls-3" d="M575.5,283.5"/>
      <circle class="cls-4" cx="540.4" cy="272.6" r="17.9"/>
    </g>
  </g>
</svg>