<?xml version="1.0" encoding="UTF-8"?>
<svg xmlns="http://www.w3.org/2000/svg" xmlns:xlink="http://www.w3.org/1999/xlink" version="1.1" viewBox="0 0 1024 1024">
  <defs>
    <style>
      .cls-1 {
        fill: none;
      }

      .cls-2 {
        fill: #514f4f;
      }

      .cls-3 {
        fill: #f16723;
      }

      .cls-4 {
        fill: #f1633f;
      }

      .cls-5 {
        fill: url(#linear-gradient);
      }

      .cls-6 {
        fill: #f26d16;
      }

      .cls-7 {
        fill: #ee3236;
      }

      .cls-8 {
        fill: #ec2126;
      }

      .cls-9 {
        fill: #fef1be;
      }

      .cls-10 {
        fill: #f0565a;
      }

      .cls-11 {
        fill: #fdcd0b;
      }

      .cls-12 {
        fill: #fdcc09;
      }

      .cls-13 {
        fill: #f5842e;
      }
    </style>
    <linearGradient id="linear-gradient" x1="575.5" y1="551.5" x2="575.5" y2="551.5" gradientTransform="translate(0 -268)" gradientUnits="userSpaceOnUse">
      <stop offset="0" stop-color="#243746"/>
      <stop offset="0" stop-color="#223442"/>
      <stop offset=".2" stop-color="#1c2b36"/>
      <stop offset=".3" stop-color="#121b22"/>
      <stop offset=".4" stop-color="#030507"/>
      <stop offset=".4" stop-color="#000"/>
    </linearGradient>
  </defs>
  <!-- Generator: Adobe Illustrator 28.7.1, SVG Export Plug-In . SVG Version: 1.2.0 Build 142)  -->
  <g>
    <g id="Layer_1">
      <path class="cls-2" d="M238.7,102c-75.5,0-136.7,61.2-136.7,136.7h0v546.7c0,75.5,61.2,136.7,136.7,136.7h546.7c75.5,0,136.7-61.2,136.7-136.7h0V238.7c0-75.5-61.2-136.7-136.7-136.7H238.7Z"/>
      <rect class="cls-1" x="232" y="232" width="559.9" height="559.9"/>
      <path class="cls-5" d="M575.5,283.5"/>
      <path class="cls-8" d="M491.1,277.8c-7.1,0-14.1.2-21.2.3-24.4.2-42.3,17.4-42.3,41.8-.2,64.9-.9,129.8.3,194.7.6,34.6-14.8,58.6-42.3,76.3-23.1,14.9-48.3,22.5-75.9,16.3-29-6.5-42.2-31.5-31.3-59.2,10.8-27.2,32-43.8,58.2-54.7,13.3-5.5,26.4-11.1,36.4-22.2,18.6-20.7,25.6-45.6,26-72.6.5-26.3.1-52.7,0-79,0-20.7-14.1-38.1-34.6-40.9-18.6-2.6-36.8-.5-53.3,9.7-2.8,1.7-5.5,3.6-7.8,5.8-6.7,6.5-6.2,9.6,2,14.2,19.3,11,29.1,33.4,24.3,55.7-4.6,21.1-23.5,37.6-45.4,39.4-21.9,1.9-43.5-11-51.7-30.9-9.8-23.6.6-59.4,22.3-76.5,17.7-14.1,38.4-20.8,60.4-24.3,1.7-.3,3.3-1.2,4.9-1.8h9.8c2.3.5,4.5,1.5,6.8,1.5,39.6,0,79.2,0,118.8,0,5.4,0,10.8.1,16.2.2,6.5,2.1,13,4.1,19.5,6.2h0ZM428.1,279.3c-.4,0-.9,0-1.3,0v23.2c.4,0,.9,0,1.3,0,0,0,0-23.2,0-23.2Z"/>
      <path class="cls-3" d="M491.1,277.8c-6.5-2.1-13-4.1-19.5-6.2,8.4,0,16.8.2,25.2-.1,5.8-.2,11.6-1,17.3-1.6h32.6c2,.5,4,1.5,6,1.6,24.3.1,48.6.1,72.9,0,2,0,4-1,6-1.6h32.6c2.2,2.2,4.5,4.4,6.7,6.6-4,.1-8.1-.1-12.1.5-19,2.9-31.5,13.3-36.5,32.1-.7,2.7-2,5.4-2,8.1-.1,82-.1,164,0,246,0,2.8,1.1,5.6,1.7,8.4.5,1.2,1.2,2.4,1.5,3.7,3,16.9,24,34,46.9,28.7.5.6,1.1,1.2,1.6,1.8-2.6,1.2-5.2,2.3-7.7,3.5-24.4,2.9-48.6,3.1-72.3-4.5-21.5-6.8-39.1-18.6-50.7-38.3-7.6-12.9-10.2-27.2-11.8-41.8-.1-7.9-.4-15.7-.4-23.6,0-55.9,0-111.8,0-167.7,0-27.3-14-47.7-37.8-55.6h0Z"/>
      <path class="cls-12" d="M664.2,609.2c2.6-1.2,5.2-2.3,7.7-3.5-.5-.6-1.1-1.2-1.6-1.8,18.4-8.4,26.1-23.1,26.1-42.9-.1-80.6,0-161.2,0-241.9,0-13.9-3.5-26.4-14.8-35.4-3.3-2.7-7-4.9-10.6-7.3-2.2-2.2-4.5-4.4-6.7-6.6h8.2c3,.7,6,1.7,9,2.2,54.5,8.9,89.2,40.6,103.3,93.3,13.8,51.8,16,104.1-4.9,155-15,36.5-38.5,66.1-75.2,83.1-12.7,5.9-26,9.3-40.3,7.4,0-.6,0-1.1,0-1.7h0Z"/>
      <path class="cls-10" d="M455.4,271.4c-39.6,0-79.2.1-118.8,0-2.3,0-4.5-1-6.8-1.5h125.6v1.5h0Z"/>
      <path class="cls-9" d="M574.6,752.7c0,.5,0,.9,0,1.4h-97.8c4-1,8-2,12-2.9,2.9.4,5.7,1.2,8.6,1.3,25.8.2,51.6.2,77.3.3h0Z"/>
      <path class="cls-13" d="M631.6,269.9c-2,.5-4,1.5-6,1.6-24.3.1-48.6.1-72.9,0-2,0-4-1-6-1.6h84.8Z"/>
      <path class="cls-4" d="M455.4,271.4v-1.5h58.7c-5.8.5-11.5,1.4-17.3,1.6-8.4.3-16.8,0-25.2.1-5.4,0-10.8-.1-16.2-.2Z"/>
      <path class="cls-11" d="M574.6,752.7c-25.8,0-51.6-.1-77.3-.3-2.9,0-5.7-.8-8.6-1.3,21.4-3.7,31.9-18.7,36.4-37.9,2.9-12,3.8-24.6,4-37,.5-50.5.3-101,.4-151.5,1.5,14.6,4.2,28.9,11.8,41.8,11.6,19.7,29.2,31.5,50.7,38.3,23.8,7.6,48,7.4,72.3,4.5,0,.6,0,1.1,0,1.7h-39.8c0,5.2,0,8.6,0,12-.8,27.1-1.3,54.1-2.7,81.2-.4,7.1-3.1,14.3-5.9,21-7.6,18.1-21.8,26.9-41.3,27.6h0Z"/>
      <path class="cls-7" d="M428.1,279.3v23.2c-.4,0-.9,0-1.3,0v-23.2c.4,0,.9,0,1.3,0Z"/>
      <path class="cls-6" d="M622.2,309.2c0,84.5,0,169,0,253.5,0,3-.2,5.9-.3,8.9-.6-2.8-1.7-5.6-1.7-8.4,0-82,0-164,0-246,0-2.7,1.3-5.4,2-8.1h0Z"/>
    </g>
  </g>
</svg>