<?xml version="1.0" encoding="UTF-8"?>
<svg xmlns="http://www.w3.org/2000/svg" xmlns:xlink="http://www.w3.org/1999/xlink" version="1.1" viewBox="0 0 1024 1024">
  <defs>
    <style>
      .cls-1 {
        fill: #514f4f;
      }

      .cls-2 {
        fill: url(#linear-gradient-2);
      }

      .cls-3 {
        fill: url(#linear-gradient);
      }
    </style>
    <linearGradient id="linear-gradient" x1="801.8" y1="-596.1" x2="1344.5" y2="-1063" gradientTransform="translate(-229.7 -89.9) scale(.6 -.6)" gradientUnits="userSpaceOnUse">
      <stop offset="0" stop-color="#5a9fd4"/>
      <stop offset="1" stop-color="#306998"/>
    </linearGradient>
    <linearGradient id="linear-gradient-2" x1="1554.3" y1="-1345.7" x2="1360.5" y2="-1071.5" gradientTransform="translate(-229.7 -89.9) scale(.6 -.6)" gradientUnits="userSpaceOnUse">
      <stop offset="0" stop-color="#ffd43b"/>
      <stop offset="1" stop-color="#ffe873"/>
    </linearGradient>
  </defs>
  <!-- Generator: Adobe Illustrator 28.7.1, SVG Export Plug-In . SVG Version: 1.2.0 Build 142)  -->
  <g>
    <g id="Layer_1">
      <path class="cls-1" d="M238.7,102c-75.5,0-136.7,61.2-136.7,136.7h0v546.7c0,75.5,61.2,136.7,136.7,136.7h546.7c75.5,0,136.7-61.2,136.7-136.7h0V238.7c0-75.5-61.2-136.7-136.7-136.7H238.7Z"/>
      <path id="path1948" class="cls-3" d="M508.5,232.9c-22.9,0-44.8,2-63.7,5.5-56.7,10-67.2,30.9-67.2,69.2v50.8h133.4v16.9h-183.2c-38.8,0-72.7,23.4-83.6,67.7-12.4,50.8-12.9,82.6,0,135.9,9.5,39.3,32.4,67.7,71.2,67.7h45.8v-61.2c0-43.8,38.3-83.1,83.1-83.1h133.4c37.3,0,66.7-30.4,66.7-67.7v-126.9c0-36.3-30.4-63.2-66.7-69.2-22.9-4-46.8-5.5-69.2-5.5ZM436.3,273.7c13.9,0,24.9,11.4,24.9,25.4s-11.4,25.4-24.9,25.4-24.9-11.4-24.9-25.4c-.5-13.9,11-25.4,24.9-25.4Z"/>
      <path id="path1950" class="cls-2" d="M661.3,375.7v59.2c0,45.8-38.8,84.6-83.6,84.6h-133.4c-36.3,0-66.7,30.9-66.7,67.7v126.9c0,36.3,31.4,57.2,66.7,67.7,42.3,12.4,82.6,14.4,133.4,0,33.8-10,66.7-29.4,66.7-67.7v-50.8h-132.9v-16.9h199.6c38.8,0,53.3-26.9,66.7-67.7,13.9-41.8,13.4-82.1,0-135.9-9.5-38.8-27.9-67.7-66.7-67.7l-49.8.5h0ZM586.1,697.3c13.9,0,24.9,11.4,24.9,25.4s-11.4,25.4-24.9,25.4-24.9-11.4-24.9-25.4,11-25.4,24.9-25.4Z"/>
    </g>
  </g>
</svg>