<?xml version="1.0" encoding="UTF-8"?>
<svg xmlns="http://www.w3.org/2000/svg" version="1.1" viewBox="0 0 1024 1024">
  <defs>
    <style>
      .cls-1 {
        fill: #5e5e5e;
        fill-opacity: .3;
      }

      .cls-2 {
        fill: #fff;
      }
    </style>
  </defs>
  <!-- Generator: Adobe Illustrator 28.7.1, SVG Export Plug-In . SVG Version: 1.2.0 Build 142)  -->
  <g>
    <g id="Layer_1">
      <g id="Layer_1-2" data-name="Layer_1">
        <rect class="cls-2" x="100" y="100" width="824" height="824" rx="179" ry="179"/>
        <rect class="cls-1" x="341.6" y="232.1" width="89.1" height="178.3"/>
        <path d="M248.7,379.9c-4.7-.4-9-1.1-13.1-2-3.9-1.1-7.6-2.2-10.9-3.4-3.2-1.2-6-2.3-8.5-3.4-2.3-1.2-4.1-2.1-5.2-2.8l9.4-17.4c1,.7,2.8,1.6,5.2,2.8,2.5,1.2,5.2,2.4,8.3,3.8,3.2,1.2,6.5,2.2,9.8,3.2,3.4.9,6.5,1.4,9.4,1.4,14.6,0,21.8-5.5,21.8-16.4s-.5-4.8-1.5-6.5c-.9-1.7-2.3-3.2-4.1-4.4-1.7-1.3-3.9-2.4-6.6-3.4-2.5-1.1-5.3-2.1-8.5-3.2-6.1-2.1-11.6-4.3-16.4-6.5-4.7-2.4-8.7-5-12-7.9-3.4-2.9-5.9-6.2-7.6-9.9-1.7-3.7-2.6-7.9-2.6-12.7s.8-7.2,2.4-10.7c1.6-3.4,3.9-6.5,6.8-9.1,2.9-2.8,6.4-5.1,10.5-6.9,4.1-2,8.6-3.4,13.5-4.2v-28.4h17.9v28c3.8.4,7.4,1,10.9,1.8s6.6,1.6,9.4,2.6c2.8.9,5.1,1.8,7,2.8,2,.8,3.5,1.4,4.4,1.8l-8.7,16.2c-1.2-.5-2.8-1.2-5-2-2-.9-4.4-1.8-7-2.8-2.6-.9-5.5-1.7-8.5-2.4-3.1-.7-6.1-1-9.2-1-5,0-9.4.9-13.3,2.8-3.8,1.7-5.7,4.7-5.7,8.9s.5,5,1.5,7.1c1.2,2,2.8,3.8,4.8,5.3,2.2,1.6,4.8,3.1,7.9,4.5,3.2,1.3,6.8,2.6,10.9,4,5.4,2,10.2,4,14.4,6.1,4.2,2.1,7.8,4.5,10.7,7.1,2.9,2.6,5.1,5.7,6.6,9.1,1.6,3.4,2.4,7.4,2.4,12.1s-.7,7.8-2.2,11.5c-1.3,3.7-3.4,7.1-6.3,10.3-2.8,3.2-6.3,5.9-10.5,8.3-4.1,2.2-8.9,3.9-14.4,4.9v29.2h-17.9v-28.4l-.2.2Z"/>
      </g>
    </g>
  </g>
</svg>