<svg id="Calque_1" data-name="Calque 1" xmlns="http://www.w3.org/2000/svg" viewBox="0 0 595 615"><defs><style>.cls-1{fill:#761fc7;}.cls-2{fill:#1088f6;}.cls-3{fill:#06aa32;}.cls-4{fill:#d22116;}.cls-5{fill:#4b4a4b;}.cls-6{fill:#fefefe;}</style></defs><title>Cloning</title><path class="cls-1" d="M388.88,523.2c-8.36,15.53-16.76,31-25.08,46.6-6.67,12.45-13.24,25-20.26,38.22-5.05-16.41-10.06-31.9-14.49-47.56-1.4-4.93-3.53-5.76-8.35-5.24-26.88,2.92-53.54.95-80-4.61A264.14,264.14,0,0,1,126.2,495.46C92.33,467.68,67.25,433.27,50.05,393c-17.1-40-23.56-81.68-20.11-124.94,4-50.75,21.42-96.68,51.53-137.54A259.68,259.68,0,0,1,178,50.19l8.38,16.28q4.91,9.84,9.82,19.66c1.66,3.91,3.33,7.82,5,11.69C86.22,155.74,58.3,289.31,103.39,381.94,149,475.57,246.5,509.56,310.7,501.61c-4.62-15.18-9.23-30.3-14.2-46.61,2.86,1.36,4.37,2,5.82,2.79,19.88,10.52,39.74,21.1,59.65,31.56,7.95,4.18,16,8.11,24,12.16l10,6.52Q392.45,515.65,388.88,523.2Z"/><path class="cls-2" d="M383.28,52.87c2-4.54,3.91-9.09,6.31-14.69,12.07,5.82,24.14,11,35.57,17.29a255,255,0,0,1,57.42,43c15.47,15.49,29.31,32.35,40.18,51.42,2.37,4.16,4.44,4.63,8.59,2.82,9.58-4.17,19.39-7.85,30.67-12.36-9.46,22.52-18.36,43.69-27.26,64.86-1.27,2.68-2.65,5.33-3.8,8.07-3.41,8.12-3.37,8.11-11.51,5.18a29.11,29.11,0,0,0-3.38-.78c-1.45-.8-2.84-1.74-4.36-2.39-12.7-5.49-25.42-10.91-38.12-16.37-8.81-3.79-17.6-7.59-27.89-12l32.66-13.2c-.7-1.4-1-2.17-1.43-2.85C461.77,147.53,443.19,127.28,420,112c-14-9.22-29.22-16.52-44.12-24.25-3.58-1.86-4.22-3.42-2.67-6.82a64.93,64.93,0,0,0,2.42-7.58Z"/><path class="cls-3" d="M547.56,320.86l13.33,1.76c-12,76.34-48.67,136.89-110.81,182.67l-7.91-10.09q-6.29-9-12.58-18l-10.43-15.64q74.57-54.66,88.68-145.87l17.4,2.15Z"/><path class="cls-4" d="M251.21,43.31c-.39-2.79-.76-5.59-1.17-8.37-.38-2.6-.81-5.19-1.28-8.19C273.82,22.07,298.58,21.52,324,24c-.33,5.31-.63,10.38-.94,15.45q-1.33,11.09-2.65,22.18c-.55,5.07-1.09,10.14-1.53,14.2L258,78.09l-2.82-12.54Z"/><path class="cls-5" d="M547.56,320.86l-22.32-3.06c.54-4.62,1.3-9.23,1.6-13.86,1.91-29.43-2-58.14-10.77-86.25a29.11,29.11,0,0,1,3.38.78c8.14,2.93,8.1,2.94,11.51-5.18,1.15-2.74,2.53-5.39,3.8-8.07,12.42,34.91,16.59,70.84,13.31,107.69C547.84,315.55,547.73,318.21,547.56,320.86Z"/><path class="cls-5" d="M251.21,43.31l4,22.24a34.41,34.41,0,0,0-5.4.47,239.84,239.84,0,0,0-53.61,20.11q-4.91-9.82-9.82-19.66A246.67,246.67,0,0,1,251.21,43.31Z"/><path class="cls-5" d="M320.43,61.61q1.32-11.1,2.65-22.18c20.63,1.93,40.79,6,60.2,13.44l-7.65,20.45A193.28,193.28,0,0,0,320.43,61.61Z"/><path class="cls-5" d="M429.59,477.16q6.3,9,12.58,18a242.41,242.41,0,0,1-48.54,26.58c-1.52.61-3.16,1-4.75,1.42q3.58-7.56,7.17-15.17l-10-6.52c1.76-.9,3.55-1.74,5.27-2.71Q410.45,488,429.59,477.16Z"/><path class="cls-6" d="M429.59,477.16Q410.44,488,391.28,498.8c-1.72,1-3.51,1.81-5.27,2.71-8-4.05-16.09-8-24-12.16-19.91-10.46-39.77-21-59.65-31.56-1.45-.77-3-1.43-5.82-2.79,5,16.31,9.58,31.43,14.2,46.61-64.2,7.95-161.73-26-207.31-119.67C58.3,289.31,86.22,155.74,201.13,97.82c-1.64-3.87-3.31-7.78-5-11.69A239.84,239.84,0,0,1,249.77,66a34.41,34.41,0,0,1,5.4-.47L258,78.09l60.91-2.28c.44-4.06,1-9.13,1.53-14.2a193.28,193.28,0,0,1,55.2,11.71,64.93,64.93,0,0,1-2.42,7.58c-1.55,3.4-.91,5,2.67,6.82,14.9,7.73,30.16,15,44.12,24.25,23.19,15.31,41.77,35.56,56.93,58.88.44.68.73,1.45,1.43,2.85L445.7,186.9c10.29,4.44,19.08,8.24,27.89,12,12.7,5.46,25.42,10.88,38.12,16.37,1.52.65,2.91,1.59,4.36,2.39,8.73,28.11,12.68,56.82,10.77,86.25-.3,4.63-1.06,9.24-1.6,13.86l-17.4-2.15q-14,91.38-88.68,145.87Z"/></svg>