<?xml version="1.0" encoding="utf-8"?>
<!-- Generator: Adobe Illustrator 23.0.3, SVG Export Plug-In . SVG Version: 6.00 Build 0)  -->
<svg version="1.1" id="Layer_1" xmlns="http://www.w3.org/2000/svg" xmlns:xlink="http://www.w3.org/1999/xlink" x="0px" y="0px"
	 viewBox="0 0 402.1 303" style="enable-background:new 0 0 402.1 303;" xml:space="preserve">
<style type="text/css">
	.st0{fill:#DEFECF;}
	.st1{fill:#676767;}
	.st2{fill:#404040;}
	.st3{fill:#3F3F3F;}
	.st4{fill:#414141;}
	.st5{fill:#3D3D3D;}
	.st6{fill:#3E3E3E;}
	.st7{fill:#727272;}
	.st8{fill:#B7FE97;}
	.st9{fill:#35B013;}
	.st10{fill:#72F851;}
	.st11{fill:#0B1707;}
</style>
<path class="st0" d="M150,9.5c48.8,0.1,89.6,39.6,89.1,90.3c-0.5,48.5-39.8,88.5-89.7,88.3c-49-0.2-89.9-40.1-88.9-91.5
	C61.5,49.1,100.3,9.4,150,9.5z M206,98c0.7-30.8-25.1-57.2-56.5-57.2c-32.6,0-57.6,25.1-57.8,57c-0.1,32.5,26.1,57.1,57.1,57.4
	C179.9,155.5,206.8,129,206,98z"/>
<path class="st1" d="M222.3,256.3c0.5,0.1,1.1,0.5,1.5,0.4c4.4-1.6,8.7-3.3,13.1-4.9c1.9-0.7,3.7-1.3,5.6-2c4.8-1.5,9.6-3,14.4-4.5
	c1.9-0.4,3.8-0.9,5.7-1.3c4.8-1,9.6-2.1,14.5-3.1c1.9-0.5,3.8-1,5.7-1.4c4.9-0.4,9.8-0.8,14.8-1.2c2,0,3.9,0,5.9,0
	c4.8,0,9.5-0.1,14.3-0.1c1.9,0.5,3.8,0.9,5.8,1.4c3.8,0.7,7.6,1.5,11.4,2.2c0.9,0.2,1.9,0.1,2.8,0.1c1.8,0.7,3.6,1.4,5.4,2.2
	c4.5,1.7,9.1,3.4,13.6,5c1.6,0.9,3.3,1.8,4.9,2.8c3.9,2.5,7.7,5.1,11.6,7.5c0.2,0.1,0.8-0.2,1.2-0.3c0,2.8,2.1,3.4,4.2,3.8
	c1.6,1.7,3.2,3.4,5.1,5.4c-1.5,1.6-3,3.3-4.5,4.9c-5.8-4-11.2-8.4-17.1-11.9c-21.8-13-45.5-17.7-70.7-14.9
	c-23.3,2.5-45,10.5-66.9,18c-19.6,6.8-39.2,13.5-59.1,19.4c-13.4,3.9-27.3,5.8-41.3,6.3c-24.9,0.8-48-5.5-69.8-17
	c-11.9-6.3-23.4-13.5-35.5-20.5c1.6-2.5,2.9-4.5,4.2-6.5c2.5,1.3,4.8,2.5,7,3.7c1.7,1.1,3.4,2.2,5.1,3.3c4.5,2.5,9.1,5.1,13.6,7.6
	c1.7,1.1,3.4,2.3,5.1,3.4c4.3,2.2,8.6,4.5,13,6.6c0.4,0.2,1-0.1,1.5-0.2c1.9,0.9,3.8,1.8,5.6,2.6c5.1,1.7,10.1,3.5,15.2,5.2
	c2.1,0.4,4.2,0.9,6.3,1.3c5.3,0.6,10.5,1.2,15.8,1.9c2.1,0.2,4.3,0.5,6.4,0.7c5.3-0.2,10.6-0.4,15.8-0.7c2.1,0,4.2,0,6.2-0.1
	c0.5-0.2,1-0.4,1.5-0.6c4.7-0.9,9.4-1.7,14.1-2.6c2-0.6,4-1.3,6-1.9c5-1.1,10.1-2.2,15.1-3.3c1.9-0.9,3.8-1.8,5.7-2.7
	c0.9,0,1.9,0.3,2.7,0c4.1-1.4,8.2-3,12.3-4.5c1.9-0.7,3.9-1.3,5.8-2c4.7-1.8,9.4-3.5,14.1-5.3C218.7,258.1,220.5,257.2,222.3,256.3z
	"/>
<path class="st2" d="M323.5,239.6c-1.9-0.5-3.8-0.9-5.8-1.4c0.6-6.5,1.2-13.1,1.9-20c2.3,0.3,4.4,0.5,6.7,0.8
	C325.4,226,324.4,232.8,323.5,239.6z"/>
<path class="st2" d="M361.5,251.8c-1.6-0.9-3.3-1.8-4.9-2.8c2.8-5.9,5.6-11.8,8.6-18.2c2,1,3.9,1.9,6.1,3.1
	C368,240,364.8,245.9,361.5,251.8z"/>
<path class="st3" d="M343,244c-1.8-0.7-3.6-1.4-5.4-2.2c1.8-6.3,3.6-12.6,5.4-19.2c2.2,0.7,4.2,1.3,6.5,2
	C347.3,231.2,345.2,237.6,343,244z"/>
<path class="st4" d="M242.5,249.8c-1.9,0.7-3.7,1.3-5.6,2c-2.2-6.3-4.3-12.6-6.6-19.3c2-0.7,3.9-1.3,6-2
	C238.4,237.1,240.4,243.5,242.5,249.8z"/>
<path class="st3" d="M282.8,239.4c-1.9,0.5-3.8,1-5.7,1.4c-1.2-6.7-2.4-13.3-3.7-20.3c2.2-0.4,4.2-0.8,6.4-1.2
	C280.8,226.3,281.8,232.8,282.8,239.4z"/>
<path class="st3" d="M378.5,262.9c-2.2-0.4-4.2-1-4.2-3.8c3.7-5.3,7.5-10.5,11.4-16c1.9,1.4,3.6,2.6,5.5,4
	C386.9,252.4,382.7,257.6,378.5,262.9z"/>
<path class="st2" d="M262.6,244c-1.9,0.4-3.8,0.9-5.7,1.3c-1.8-6.3-3.7-12.6-5.6-19.3c2-0.6,3.9-1.2,6.2-1.9
	C259.2,230.9,260.9,237.5,262.6,244z"/>
<path class="st2" d="M222.3,256.3c-1.8,0.9-3.6,1.7-5.3,2.6c-2.4-6.3-4.7-12.5-7.2-19c1.9-0.7,3.7-1.4,5.8-2.2
	C217.9,244,220.1,250.2,222.3,256.3z"/>
<path class="st2" d="M182,270.6c-1.9,0.9-3.8,1.8-5.7,2.7c-1.9-6.6-3.7-13.2-5.7-19.9c1.8-0.6,3.4-1.1,5.5-1.8
	C178.1,258,180.1,264.3,182,270.6z"/>
<path class="st2" d="M161.1,276.7c-2,0.6-4,1.3-6,1.9c-1.4-6.6-2.8-13.2-4.2-20.1c1.8-0.4,3.5-0.8,5.6-1.3
	C158.1,263.8,159.6,270.2,161.1,276.7z"/>
<path class="st2" d="M202.8,264.2c-1.9,0.7-3.9,1.3-5.8,2c-2.2-6.3-4.5-12.5-6.8-19.2c1.9-0.7,3.7-1.3,5.7-2
	C198.2,251.5,200.5,257.9,202.8,264.2z"/>
<path class="st2" d="M35,253.1c-1.7-1.1-3.4-2.2-5.1-3.3c3.6-5.6,7.1-11.3,10.9-17.1c1.7,1.1,3.2,2,5.1,3.2
	C42.2,241.7,38.6,247.4,35,253.1z"/>
<path class="st3" d="M53.8,264.2c-1.7-1.1-3.4-2.3-5.1-3.4c3.2-5.7,6.4-11.4,9.8-17.4c1.7,1,3.2,1.9,5,2.9
	C60.2,252.3,57,258.2,53.8,264.2z"/>
<path class="st2" d="M73.8,273.3c-1.9-0.9-3.8-1.8-5.6-2.6c2.6-6,5.2-12,7.9-18.2c1.8,0.8,3.4,1.4,5.2,2.2
	C78.8,260.9,76.3,267.1,73.8,273.3z"/>
<path class="st3" d="M139.6,281.7c-2.1,0-4.2,0-6.2,0.1c-0.6-6.7-1.2-13.4-1.8-20.5c1.9-0.1,3.5-0.3,5.6-0.4
	c0.9,6.7,1.7,13.3,2.5,19.8C139.6,281.1,139.6,281.4,139.6,281.7z"/>
<path class="st5" d="M303.5,238.2c-2,0-3.9,0-5.9,0c-0.4-6.7-0.8-13.5-1.2-20.5c2.3,0,4.3,0,7.1,0
	C303.5,224.5,303.5,231.4,303.5,238.2z"/>
<path class="st3" d="M95.4,279.8c-2.1-0.4-4.2-0.9-6.3-1.3c1.7-6.5,3.3-12.9,5.1-19.6c1.8,0.4,3.5,0.8,5.2,1.2
	C98,266.8,96.7,273.3,95.4,279.8z"/>
<path class="st6" d="M117.5,282.4c-2.1-0.2-4.3-0.5-6.4-0.7c0.4-6.6,0.8-13.1,1.2-20c1.9,0.1,3.5,0.2,5.2,0.3
	C117.5,268.9,117.5,275.7,117.5,282.4z"/>
<path class="st7" d="M139.6,281.7c0-0.3,0-0.7,0-1c0.5,0.1,1,0.3,1.4,0.4C140.6,281.3,140.1,281.5,139.6,281.7z"/>
<path class="st8" d="M206,98c0.8,31-26.1,57.5-57.1,57.2c-31-0.3-57.2-24.9-57.1-57.4c0.1-31.9,25.1-57.1,57.8-57
	C180.9,40.8,206.7,67.2,206,98z M150,62.8c-20-0.2-35.9,15.5-36.2,35.5c-0.3,20,15.6,36.2,35.7,36.4c20,0.2,36.1-15.8,36.2-35.9
	C185.8,78.9,170.1,63,150,62.8z"/>
<path class="st9" d="M150,62.8c20,0.2,35.8,16,35.7,36c-0.1,20.1-16.2,36.1-36.2,35.9c-20.1-0.2-36-16.3-35.7-36.4
	C114.1,78.4,130.1,62.7,150,62.8z M180.8,98.9c0.8-17.6-14-31.6-31-31.4c-17.8,0.1-31,13.5-31.3,31c-0.2,17.5,14.4,31.3,31.2,31.4
	C166.5,130.1,181.9,114.8,180.8,98.9z"/>
<path class="st10" d="M180.8,98.9c1.1,15.8-14.2,31.2-31,31s-31.5-13.9-31.2-31.4c0.2-17.6,13.5-30.9,31.3-31
	C166.7,67.4,181.5,81.3,180.8,98.9z M143,84.4c0,8.6,0,17.1,0,25.9c1.1-0.1,2-0.1,3.2-0.2c0-3.9,0-7.5,0-11.4c3.7,0,7,0,10.6,0
	c-0.1-1.1-0.1-1.9-0.2-2.9c-3.6,0-6.9,0-10.2,0c0-3,0-5.7,0-8.7c4.2,0,8,0,12.1,0c0-1,0-1.8,0-2.7C153.4,84.4,148.4,84.4,143,84.4z"
	/>
<path class="st11" d="M143,84.4c5.4,0,10.4,0,15.6,0c0,0.9,0,1.7,0,2.7c-4.1,0-7.9,0-12.1,0c0,3,0,5.7,0,8.7c3.3,0,6.6,0,10.2,0
	c0.1,1,0.1,1.8,0.2,2.9c-3.6,0-6.9,0-10.6,0c0,3.9,0,7.5,0,11.4c-1.3,0.1-2.2,0.1-3.2,0.2C143,101.5,143,93,143,84.4z"/>
</svg>
