<?xml version="1.0" encoding="UTF-8"?>
<svg id="Layer_1" data-name="Layer 1" xmlns="http://www.w3.org/2000/svg" version="1.1" viewBox="0 0 406 341">
  <defs>
    <style>
      .cls-1 {
        fill: #f26d16;
      }

      .cls-1, .cls-2, .cls-3, .cls-4, .cls-5, .cls-6, .cls-7, .cls-8, .cls-9, .cls-10 {
        stroke-width: 0px;
      }

      .cls-2 {
        fill: #f1633f;
      }

      .cls-3 {
        fill: #fdcd0b;
      }

      .cls-4 {
        fill: #ee3236;
      }

      .cls-5 {
        fill: #fdcc09;
      }

      .cls-6 {
        fill: #fef1be;
      }

      .cls-7 {
        fill: #ec2126;
      }

      .cls-8 {
        fill: #f16723;
      }

      .cls-9 {
        fill: #f5842e;
      }

      .cls-10 {
        fill: #f0565a;
      }
    </style>
  </defs>
  <path class="cls-7" d="M190.87,24.36c-4.33.06-8.66.14-12.99.18-14.98.12-25.92,10.7-25.97,25.67-.12,39.82-.56,79.65.16,119.45.38,21.2-9.08,35.92-25.97,46.81-14.16,9.12-29.61,13.78-46.55,10-17.76-3.96-25.9-19.35-19.18-36.29,6.61-16.67,19.63-26.89,35.71-33.58,8.17-3.4,16.19-6.79,22.32-13.61,11.43-12.71,15.7-27.95,15.98-44.52.28-16.16.08-32.32.05-48.48-.02-12.7-8.67-23.36-21.24-25.11-11.41-1.59-22.59-.33-32.69,5.97-1.69,1.05-3.38,2.18-4.8,3.55-4.12,3.97-3.81,5.87,1.21,8.71,11.85,6.72,17.87,20.51,14.91,34.16-2.81,12.96-14.44,23.04-27.88,24.18-13.46,1.14-26.68-6.75-31.74-18.94-6-14.46.39-36.41,13.65-46.94,10.88-8.64,23.58-12.75,37.06-14.93,1.04-.17,2.01-.73,3.01-1.11,2,0,4,0,6,0,1.39.33,2.77.95,4.16.95,24.29.03,48.59,0,72.88-.03,3.31.04,6.63.07,9.94.11,3.99,1.27,7.97,2.53,11.96,3.8ZM152.19,25.28c-.26-.02-.53-.04-.79-.05v14.23c.26.01.53.03.79.04v-14.22Z"/>
  <path class="cls-8" d="M190.87,24.36c-3.99-1.27-7.97-2.53-11.95-3.8,5.14,0,10.29.1,15.43-.07,3.55-.12,7.09-.62,10.64-.96,6.67,0,13.34,0,20.01,0,1.22.33,2.44.95,3.66.96,14.9.07,29.8.07,44.71,0,1.22,0,2.44-.62,3.66-.96,6.67,0,13.34,0,20.01,0,1.37,1.35,2.75,2.69,4.12,4.04-2.47.09-4.99-.07-7.42.3-11.64,1.79-19.33,8.17-22.42,19.72-.43,1.66-1.24,3.32-1.24,4.98-.07,50.3-.07,100.6,0,150.9,0,1.71.7,3.42,1.07,5.13.3.76.74,1.49.89,2.27,1.87,10.36,14.74,20.84,28.75,17.6.33.36.67.73,1,1.09-1.58.71-3.16,1.41-4.73,2.12-14.96,1.76-29.79,1.88-44.37-2.76-13.16-4.19-23.97-11.4-31.09-23.5-4.65-7.9-6.28-16.67-7.21-25.62-.09-4.82-.25-9.64-.25-14.46-.02-34.29.03-68.58-.03-102.88-.03-16.77-8.61-29.27-23.19-34.1Z"/>
  <path class="cls-5" d="M297.02,227.68c1.58-.71,3.16-1.41,4.73-2.12-.33-.36-.67-.73-1-1.09,11.31-5.13,16.04-14.14,16.02-26.29-.08-49.46-.03-98.91-.04-148.37,0-8.5-2.12-16.18-9.1-21.74-2.05-1.64-4.32-3-6.49-4.49-1.37-1.35-2.75-2.69-4.12-4.04,1.67,0,3.33,0,5,0,1.85.46,3.68,1.04,5.55,1.35,33.43,5.48,54.72,24.93,63.34,57.26,8.48,31.79,9.8,63.87-3.02,95.08-9.2,22.4-23.59,40.53-46.15,50.95-7.77,3.59-15.98,5.68-24.7,4.54,0-.34-.02-.69-.03-1.03Z"/>
  <path class="cls-10" d="M168.97,20.46c-24.29.03-48.59.07-72.88.03-1.39,0-2.77-.62-4.16-.95,25.68,0,51.35,0,77.03,0,0,.31,0,.61,0,.92Z"/>
  <path class="cls-6" d="M242.04,315.7c-.03.28-.05.56-.05.84h-60.02c2.45-.6,4.9-1.2,7.35-1.8,1.76.27,3.51.76,5.27.77,15.82.11,31.64.14,47.45.2Z"/>
  <path class="cls-9" d="M277.01,19.54c-1.22.33-2.44.95-3.66.96-14.9.07-29.8.07-44.71,0-1.22,0-2.44-.62-3.66-.96,17.34,0,34.68,0,52.02,0Z"/>
  <path class="cls-2" d="M168.97,20.46c0-.31,0-.61,0-.92,12,0,24.01,0,36.01,0-3.54.33-7.08.84-10.64.96-5.14.17-10.28.06-15.43.07-3.31-.04-6.63-.07-9.94-.11Z"/>
  <path class="cls-3" d="M242.04,315.7c-15.82-.05-31.64-.08-47.45-.2-1.76-.01-3.52-.5-5.27-.77,13.15-2.28,19.56-11.45,22.36-23.27,1.75-7.35,2.35-15.12,2.43-22.7.3-30.99.19-61.97.23-92.96.93,8.96,2.56,17.73,7.21,25.63,7.12,12.1,17.93,19.31,31.09,23.5,14.58,4.64,29.42,4.52,44.37,2.76,0,.34.02.69.03,1.03-7.93,0-15.86,0-24.42,0,0,3.17.05,5.27,0,7.37-.49,16.6-.77,33.21-1.64,49.79-.23,4.35-1.89,8.78-3.61,12.88-4.66,11.09-13.4,16.5-25.32,16.95Z"/>
  <path class="cls-4" d="M152.19,25.28v14.22c-.26-.01-.53-.03-.79-.04v-14.23c.26.02.53.04.79.05Z"/>
  <path class="cls-1" d="M271.3,43.6c0,51.84,0,103.69-.02,155.53,0,1.82-.11,3.65-.16,5.47-.37-1.71-1.06-3.42-1.07-5.13-.06-50.3-.06-100.6,0-150.9,0-1.66.81-3.32,1.24-4.98Z"/>
</svg>