<?xml version="1.0" encoding="utf-8"?>
<!-- Generator: Adobe Illustrator 23.0.3, SVG Export Plug-In . SVG Version: 6.00 Build 0)  -->
<svg version="1.1"
	 id="svg2" xmlns:cc="http://creativecommons.org/ns#" xmlns:dc="http://purl.org/dc/elements/1.1/" xmlns:inkscape="http://www.inkscape.org/namespaces/inkscape" xmlns:rdf="http://www.w3.org/1999/02/22-rdf-syntax-ns#" xmlns:sodipodi="http://sodipodi.sourceforge.net/DTD/sodipodi-0.dtd" xmlns:svg="http://www.w3.org/2000/svg"
	 xmlns="http://www.w3.org/2000/svg" xmlns:xlink="http://www.w3.org/1999/xlink" x="0px" y="0px" viewBox="0 0 672 687"
	 style="enable-background:new 0 0 672 687;" xml:space="preserve">
<style type="text/css">
	.st0{fill:#FFFFFF;}
	.st1{fill:#FFB046;stroke:#000000;stroke-width:14.425;}
	.st2{fill:#FFBC00;stroke:#000000;stroke-width:14.425;}
	.st3{fill:#FF942A;stroke:#000000;stroke-width:2.55;}
	.st4{fill:url(#path5298_1_);stroke:#000000;stroke-width:14.425;}
</style>
<rect x="243.3" y="101.6" class="st0" width="55.9" height="77.7"/>
<rect x="317" y="96.9" class="st0" width="74.2" height="77.7"/>
<sodipodi:namedview  bordercolor="#666666" borderopacity="1.0" id="base" inkscape:current-layer="layer7" inkscape:cx="283.0016" inkscape:cy="465.63335" inkscape:document-units="px" inkscape:pageopacity="0.0" inkscape:pageshadow="2" inkscape:window-height="718" inkscape:window-maximized="1" inkscape:window-width="1024" inkscape:window-x="0" inkscape:window-y="0" inkscape:zoom="0.35355339" pagecolor="#ffffff" showgrid="false" showguides="false">
	</sodipodi:namedview>
<g id="layer7" inkscape:groupmode="layer" inkscape:label="Layer 1">
	<path id="path5266" inkscape:connector-curvature="0" d="M441.3,678.3c-8.1-1.2-16.1-4.4-22.7-9.1c-3-2.1-7.9-6.8-10.4-9.8
		c-4-5-7.9-11.9-9.5-17l-0.9-2.9l-3.4,0.2c-3.6,0.2-13.6-0.2-18.7-0.7c-4.4-0.4-10.8-1.2-20.7-2.6c-14.5-2.1-16.3-2.2-24.5-2.2
		c-12.6,0-21.8,1.1-45.2,5.6c-10.9,2.1-15.1,2.7-19.7,2.9l-3.9,0.2l-1,2c-6.2,12.4-18.6,21.5-33.6,24.8c-7.3,1.6-17.4,2.1-25.2,1.3
		c-15.4-1.6-29.4-5.9-45.7-13.9c-10.4-5.1-16.6-7.4-26-9.5c-8.5-1.9-15-2.9-31.6-4.8c-20.5-2.4-28.5-4-35.9-7.4
		c-5.1-2.4-10-6.6-12.4-10.6c-2.7-4.6-3.7-8.8-3.7-15.6c0-7.3,1.4-14.2,4.7-24.2c2-5.8,2.2-7.4,2-13.5c-0.1-3.8-0.5-7.1-1.6-14.5
		c-2.1-14.7-2.4-19.7-1.3-25.6c1.9-9.8,8.2-18.3,17.6-23.6c3.2-1.7,6-2.9,11.6-4.9c12.8-4.5,16.6-6.4,20.5-10.4
		c2.3-2.4,3.3-3.5,8.9-11.1s7.3-9.7,10.4-12.9l2.5-2.6l-0.5-3.7c-0.6-5.1-0.9-16.9-0.4-22.6c1.5-20.9,7.5-42.9,18.1-66.8
		c13.9-31.3,35.6-65.3,63.1-98.9c6.8-8.2,12.2-16.7,17.5-27c9.6-18.6,14.1-36.1,16.2-61.6c0.4-4.9,0.2-10.2-0.9-27.8
		c-1.2-19.5-1.4-24.2-1.4-36.1c0-10.9,0.2-16.5,1-24.2c4.3-42.9,22.3-70.2,54.8-82.9c14.7-5.8,33.2-8.7,52.4-8.2
		c17.3,0.4,30.6,3.4,43.5,9.7c7.8,3.8,14.1,8.3,20.3,14.5c18.5,18.5,29,47.4,32,88.5c0.8,11.2,1,18.6,1,43c0,29.3,0.1,30.9,2.8,41.9
		c3.7,15.2,11,29.7,24,47.6c4.9,6.7,13.7,18,20.2,25.9c30,36.2,50,69.7,60.7,101.9c10.8,32.5,12,63.7,3.5,91.6
		c-0.6,2.1-1.2,4-1.3,4.2c-0.1,0.3,0.4,0.6,1.8,1.2c2.8,1.1,7.6,4.4,10.2,7c5.3,5.2,8.5,11.9,11.3,23.4c0.6,2.5,1.8,7.4,2.7,10.9
		c2.4,9.9,4.5,15.3,7.2,18.8c0.7,0.9,2.5,3,4,4.7c20.5,23.6,22.4,40.9,5.8,54.2c-5.2,4.2-9.8,6.8-27.9,15.8
		c-7.5,3.7-15.2,7.7-17,8.7c-13.3,7.5-21.3,13.8-29.9,23.7c-16.8,19.3-35.6,31.1-56,35c-3.3,0.6-4.7,0.7-10.4,0.8
		C445.8,678.6,443.1,678.5,441.3,678.3L441.3,678.3z M454,669.7c11.3-1.1,22.8-5.4,34.1-13c8.4-5.6,14.8-11.5,24.2-22.2
		c7.6-8.7,16.5-15.6,29.1-22.9c4.2-2.4,7.8-4.2,27.5-13.9c13.4-6.6,19.4-10.8,22.7-15.8c3.9-5.9,2.7-13.5-3.5-23.5
		c-2.7-4.3-6.1-8.8-12.5-16.2c-4.2-4.8-6.8-11-9.4-21.8c-4.1-17.3-4.9-20.1-7.3-24.9c-2.6-5.3-6.4-9-11.7-11.5
		c-4.8-2.3-6.3-2.6-15.5-2.7l-7.9-0.1L521,484c-9.1,9-22.2,16.3-33.9,18.8c-4.1,0.9-10.9,0.9-13.9,0c-4.9-1.4-8.1-3.2-11.7-6.8
		c-6.6-6.4-11.2-16.5-12.7-28.1c-0.3-2-0.5-3.7-0.5-3.7c-0.2-0.3-4,2.1-6,3.9c-4.9,4.1-8.7,10-11.4,18.1c-3.6,10.8-5.5,24.5-6.9,49
		c-1,17.7-1.5,20.5-10.3,50.4c-5.9,20.1-8,31-8,41.6c0,8.4,1.1,13.2,4.4,19.1c5.1,9.1,11.9,15.9,19.8,19.6
		C437.2,669.2,445.2,670.5,454,669.7L454,669.7z M218.5,661.9c8.9-1,17-3.7,23.3-7.9c2.7-1.8,7.1-6.2,8.9-8.9
		c2.8-4.2,4.8-9,5.9-14.7c0.8-3.6,1-10.2,0.6-13.2c-1.2-7.7-6.3-18.3-14.3-29.7c-3.4-4.8-7.6-10.3-16.5-21.5
		c-13.2-16.6-17.6-22.6-21.4-29.8c-0.8-1.5-7.2-13.2-14.2-26c-14-25.5-14.3-26-20.2-32.1c-4.8-5-8.9-8.1-13.3-10.1
		c-6-2.7-13-3.6-18.4-2.2c-6.4,1.6-11.9,6.4-19.7,16.9c-8.4,11.3-10.1,13.4-13.3,16.4c-4.7,4.5-9.2,6.8-20.3,10.7
		c-12.3,4.3-15.9,6.2-19.9,10.7c-3,3.3-5.1,7.2-5.9,11.2c-1.2,6.1-0.9,10.5,2.1,30c0.4,2.3,0.6,5.7,0.7,9.4c0.2,7.2-0.1,9-2.7,16.9
		c-3.2,9.7-4.4,16.2-4.1,22.2c0.2,5.6,1.4,8.9,4.3,12c5.5,5.9,14.2,8.5,36.3,10.9c24,2.6,33.5,4.2,44.9,7.7
		c6.2,1.9,9.2,3.2,18.2,7.5c4.5,2.2,10,4.7,12.2,5.6c10.5,4.1,20.7,6.8,30.3,7.8C206,662.2,214.8,662.3,218.5,661.9L218.5,661.9z
		 M327.7,609.9c25.4-1.7,50.4-10.6,74.2-26.5c2-1.3,3.7-2.5,3.8-2.7c0.3-0.4,4.8-16.1,6.2-21.8c2.3-9.3,2.6-11.5,3.5-27.7
		c1.9-33,5.6-49.5,13.9-61.9c2.2-3.3,7.4-8.6,10.4-10.6c2.1-1.4,8.1-4.5,8.7-4.5c0.2,0,0.5-1.5,0.8-3.3c0.9-5.6,2.4-9.7,5.1-13
		c6.3-8,18.6-9.4,35.4-3.8c9.1,3,21.6,9.2,28.6,14.2c3,2.1,7.9,7,9.1,9.1c2.3,3.9,3,8.1,2.2,12.3c-0.3,1.2-0.5,2.2-0.5,2.3
		c0,0.1,1.2,0.1,2.7,0l2.7-0.1l0.5-1.8c2.9-11.5-2.6-21.5-17.2-31.3c-5.4-3.6-16.2-9.5-21.3-11.6c-1-0.4-2-0.9-2.1-1s0-1.4,0.3-2.9
		c7.1-32.9-5.8-73.7-34.2-107.9c-3.4-4.1-12.5-13.5-13.3-13.7c-0.3-0.1-0.9,0-1.2,0.3c-1.5,1-0.3,3,4.6,8.1
		c6.4,6.6,9.8,10.9,14.9,18.6c17.8,27.3,24.7,57,19.1,82.4c-0.7,3-2.7,9.6-3.1,10.3c-0.2,0.3-1.1,0.2-3.7-0.4
		c-2-0.4-5.1-0.8-7.1-0.9l-3.6-0.2l-0.4-2c-5-25.8-14.6-52.3-29-79.8c-10.2-19.5-16.5-33.2-26.6-58.2c-9.2-22.7-19.2-52.2-23.6-69.5
		c-0.2-0.7-0.4-1.2-0.5-1.2s-0.5,0.5-1,1.1c-1.3,1.8-4.6,5.2-6.9,7c-6,4.8-12.1,8.1-20.5,11c-3.8,1.3-6.9,2.9-11.7,5.9
		c-10.7,6.8-16,9.6-21.2,11.4c-6.8,2.4-14.3,3.3-21,2.7c-6.5-0.6-10.9-1.8-16-4.4c-4-2.1-7-4.2-12.9-9.5c-6.5-5.8-8.1-7-11.9-9.4
		c-1.7-1-4-2.6-5.2-3.4c-2.5-1.7-2.6-1.7-2.6,0.6c0,1.9-1,10.1-1.7,14.3c-2.1,12.1-4.9,23-9.7,37.6c-6.4,19.3-13.8,37.1-28.5,68.9
		c-11.4,24.7-13.7,29.9-17.1,39.7c-7.1,20.3-11.6,42.8-12.4,61.7c-0.1,2.4-0.3,4.4-0.4,4.4c-0.1,0-1.1-1.4-2.2-3
		c-14.1-21.2-15.8-48-5.2-79.3c2.7-7.9,5.1-13.6,9.9-23c2.4-4.7,5.9-11.7,7.8-15.5c3.9-7.8,5.9-12.4,5.9-13.9c0-2-0.8-1.3-4,4
		c-14.4,23.7-23.3,42-29.2,59.7c-8,24.4-8.9,45.4-2.5,62.6c3.4,9.1,8.2,16.5,15.5,23.9c4.7,4.8,8.3,7.7,14.1,11.4
		c2.3,1.5,7,4.6,10.6,6.9c29.4,19.4,48.4,40.9,52,58.6c0.5,2.4,0.4,7.2-0.1,9.4c-1.2,4.9-4.2,8.4-8.9,10.7
		c-3.4,1.7-6.3,2.4-10.2,2.6c-1.7,0.1-3.1,0.2-3.1,0.3s1.1,1.6,2.5,3.4c4.5,5.7,10.7,14.1,13.5,18.3l2.8,4.1l3.2,2
		c6.6,4.1,13.2,7.5,19.6,10c12,4.7,22.1,6.9,36.1,7.8C317.2,610.2,323.6,610.2,327.7,609.9L327.7,609.9z M314.4,243.4
		c8.6-1.2,14.6-3.6,25.3-10.4c9-5.7,12.6-7.7,16.8-9c18.9-6.1,32-19.9,30.6-31.9c-0.6-4.9-3.9-9.4-9.3-12.9
		c-2.8-1.8-9.4-4.6-18.6-7.8c-9.5-3.3-12-4.4-17.7-7.9c-12.3-7.4-21.5-10.6-31.4-11c-6.4-0.3-11.7,0.7-17.5,3.1
		c-5.7,2.4-10.9,6-17.6,12.2c-3.1,2.9-6.6,5.7-12,9.7c-10.8,8-12.2,9.1-13.5,10.9c-5.6,7.6-2.1,18.1,8.9,26.9
		c2.6,2.1,4.2,3.2,9.1,6.2c3.2,2,6.8,4.8,11.6,9.2c8.2,7.4,12.5,10.1,19.4,11.8C303.3,243.8,309.2,244.1,314.4,243.4L314.4,243.4z
		 M299.6,224c-6.4-0.8-11.9-2.4-17.7-5.3c-6.2-3-11.5-6.7-17.7-12.1c-6.2-5.5-8.6-8-9.1-9.5c-0.9-2.7-0.3-4.9,1.2-4.5
		c1.3,0.3,2.2,1.2,3.3,3.3c1.2,2.2,3.4,4.5,8.7,9.1c9.6,8.3,17.6,12.7,27.5,15c2.3,0.5,3.5,0.6,8.5,0.6c5.3,0,6.2-0.1,9.4-0.7
		c6.6-1.4,14.2-4.2,21.9-8.1c8.8-4.4,12.5-6.7,21.8-13.6c5.9-4.4,6.4-4.8,8.5-7.6c1.8-2.3,2.9-3,4.5-2.6c3.5,0.8-0.8,6.2-11,13.9
		c-6.3,4.7-10.2,7.1-19.7,11.8c-9.8,4.9-14.2,6.7-20.7,8.6C312.6,223.8,304.7,224.6,299.6,224L299.6,224z M289.4,169.3
		c-1.8-0.8-1.7-2.5,0.3-3.8c0.6-0.4,2.1-1,3.3-1.4c1.8-0.6,2.6-0.7,4-0.6c1.8,0.1,3.2,0.8,3.3,1.7c0.1,0.7-0.9,1.5-2.6,1.9
		c-1,0.2-2.3,0.8-3.4,1.6C292.3,169.9,291.2,170.1,289.4,169.3L289.4,169.3z M322.1,168.6c-0.9-0.7-2.3-1.3-3.2-1.6
		c-2.1-0.5-2.8-1-2.8-1.9c0-0.6,0.2-0.8,1.2-1.2c2.2-1,5.5-0.5,8.7,1.2c2.7,1.5,3.1,3.4,0.9,4.3
		C325.1,170.1,323.9,169.9,322.1,168.6z M264.7,170c1.8-1.4,3.4-2.6,3.4-2.7c0.1-0.1-0.4-0.7-1-1.3c-4.4-3.9-7-12.4-6.6-20.7
		c0.9-16.9,12.7-21.6,19.3-7.6c1.8,3.9,2.5,7,2.7,12.6c0.1,2.7,0.2,4.8,0.2,4.8c0.1,0,0.7-0.4,1.4-0.8c2.1-1.3,5.9-3,8.9-4.1l2.8-1
		v-5.5c0-6.1-0.5-9.6-1.8-14.4c-3.3-11.8-10.2-20.5-18.3-23.2c-2.5-0.8-6.4-1-9-0.4c-3.8,0.9-8.2,4.1-11.3,8.2
		c-3.2,4.2-5.9,11-7.2,17.7c-0.8,4.2-0.7,14.2,0.1,18.7c1.6,8.9,5.2,16.8,9.8,22l1.4,1.6l0.9-0.6C261,172.7,262.9,171.3,264.7,170
		L264.7,170z M378.1,170.8c6.4-9,9.4-20.5,8.6-32.4c-0.5-7.8-1.9-13-5.3-20c-3.9-8-9.3-13.6-16.3-17.1c-4.2-2.1-6.7-2.6-11.7-2.6
		c-6.1,0-10.1,1.2-15,4.4c-3.3,2.1-8.2,7-10.3,10.2c-3.4,5.1-6.2,12.3-7.3,18.5c-0.5,2.7-0.6,4.5-0.6,9.3c0,3.3,0.1,6.5,0.2,7
		c0.2,1,0.3,1,1.8,1.4c2.8,0.6,9.3,2.7,12.5,4l3,1.3l-0.2-1.2c-0.4-2-0.2-8.3,0.3-11c0.6-3.3,1.3-5.5,2.8-8.7
		c2.1-4.4,5.2-7.5,8.7-8.8c2.3-0.9,5.8-0.7,8,0.4c7,3.4,11.3,14.6,10,25.8c-0.7,6.3-2.1,9.6-5.2,12.8l-2.1,2.2l0.8,0.3
		c0.4,0.2,2.7,1,5.1,1.9s5.7,2.2,7.4,2.9c1.7,0.7,3.2,1.4,3.3,1.4C376.6,172.8,377.3,171.9,378.1,170.8L378.1,170.8z"/>
	<path id="path5272" inkscape:connector-curvature="0" class="st1" d="M303.6,607.7c-28-5-45.1-14.5-57.9-32.5
		c-6.8-9.6-7.1-10.5-3-10.5c2.5,0,7.4-2.4,10.8-5.4c17.6-15.1-2.6-48-48.7-79.2c-32.2-21.8-42.7-40.3-40.4-71.3
		c1.1-15.1,9.7-47.2,12-44.9c0.5,0.5-0.8,8.4-2.7,17.7c-4.5,21.1-2.9,39.3,5,56.2c7,15.1,8.1,13.6,11.9-15.2
		c3-22.7,10.5-44.5,31.5-90.9c18.6-41.2,26.8-64.3,32.1-90.1l3.8-18.9l14.6,11.2c17.3,13.3,28.5,17.4,41.8,15.6
		c10.3-1.4,60.1-25.9,67.5-33.1c4.2-4.2,4.5-3.7,13.8,24.5c12.6,38.1,16.2,46.6,38.5,93.4c10.8,22.6,21.6,49,24.9,61.1
		c3.3,11.7,6.3,22.6,6.8,24.1c0.5,1.6,4.4,2.8,8.8,2.8c6.7,0,8.2-0.9,9.7-6.2c3.5-12.5,1.6-44-3.5-58.1c-6.2-17.1-4.4-19.4,2.6-3.3
		c8.1,18.5,11.5,35.2,11.1,55.5l-0.3,18.3l11,5.1c19.8,9.3,32.8,25.7,28.1,35.7c-1.5,3.1-2,2.5-2.6-3.3
		c-1.5-13.3-24.6-29.3-50.2-34.8c-9.8-2.1-12.7-1.9-20,1.7c-5.6,2.7-9.3,6.5-10.7,11c-1.2,3.8-7.5,11.9-13.9,18.1
		c-14.2,13.7-17.7,24.2-21.2,63.3c-2.7,30.1-8,52.8-13.4,57.2c-7.1,5.8-40,20.5-51.1,22.9C333.2,608.8,315.4,609.8,303.6,607.7
		L303.6,607.7z"/>
	<path id="path5274" inkscape:connector-curvature="0" class="st2" d="M433.9,666.5c-9.5-2.9-22.6-17.9-25.7-29.2
		c-2.9-10.8-0.8-24.9,9.1-61.2c3.7-13.8,7.5-35.2,8.9-50.9c2.8-32.4,5.2-41.7,12.9-50.8c6.7-8,9.9-8.7,9.9-2.2
		c0,6.9,8.1,21.5,14.9,26.8c11.6,9.1,35.1,4.7,52.1-9.6c5.6-4.8,9.5-6,18.5-6c16.9,0,21.7,5.2,29.4,31.7
		c4.6,15.8,8.7,24.8,15.6,33.9c20.6,27.3,18.7,32.1-20,52.2c-22.8,11.8-31.3,17.8-48.8,34.3c-11.7,11-26.4,22.6-32.8,25.8
		C465,667.6,445.4,670,433.9,666.5L433.9,666.5z"/>
	<path id="path5276" inkscape:connector-curvature="0" class="st2" d="M195.7,659.5c-6.7-1.2-22-6.3-33.9-11.4
		c-20.7-8.9-26.9-10.3-77.6-18.1c-20.2-3.1-26.6-8.2-26.6-21c0-5.3,1.5-14.7,3.4-20.8c2.9-9.3,3-14.6,0.8-33
		c-3.5-29.1-0.9-34,22.7-43.8c18.1-7.5,20.6-9.5,38.3-30.1c11-12.8,12.8-14,21-14c18.7,0,25.5,6.7,47.8,47.1
		c9.1,16.5,24.5,40.2,34.2,52.6c20.4,26.2,30.9,44.8,30.9,55c0,4-2.3,11.8-5.1,17.3C242.8,656.7,222.2,664.1,195.7,659.5
		L195.7,659.5z"/>
	<path id="path5296" inkscape:connector-curvature="0" class="st3" d="M303.2,243.3c-7.2-0.9-17.1-6.4-26.2-14.4
		c-2.5-2.2-7.1-5.7-10.3-7.8c-10.8-7.1-14.7-10.9-17.9-17.3c-1.6-3.2-1.7-3.5-1.7-7c0-4.2,0.7-6.2,3.2-9c0.8-0.9,5.7-4.8,10.7-8.6
		c5.1-3.8,11.3-8.8,13.9-11.1c8.2-7.3,13.1-10.6,19.2-12.8c5-1.8,8.2-2.4,13.9-2.4c10.9,0,18.2,2.4,32.6,10.6
		c6.7,3.8,9.2,4.9,23.2,10.1c14.2,5.3,18.7,8.3,21.7,14.8c1.5,3.2,1.5,7.9,0.1,11.6c-1.1,2.9-3.6,6.9-6.2,9.7
		c-4.6,5.1-13.9,10.8-22.6,14c-4.3,1.6-9.3,4.1-15.3,7.9c-4.1,2.6-14,7.1-21.7,10C314.4,243.6,309.5,244.1,303.2,243.3L303.2,243.3z
		 M308.8,224c9.1-0.9,16.3-3.3,29.4-9.8c10.6-5.3,14.9-7.8,21.1-12.5c10.9-8.2,15.1-14.1,10.2-14.1c-1.1,0-1.7,0.3-2.7,1.3
		c-0.7,0.7-2.1,2.3-3.1,3.4c-2.3,2.4-13.2,10.5-19.1,14c-8.8,5.3-20.3,10.3-28.6,12.5c-4.3,1.1-5.2,1.2-11.7,1.2
		c-7.9,0-11.1-0.6-17.6-3.4c-9.4-4-22.7-14.3-27.1-21.1c-1.7-2.7-3-3.5-4.4-2.9c-0.5,0.2-0.6,0.7-0.5,2.6c0.2,2.9,1.3,4.3,7.6,9.9
		c10.7,9.6,20,15,29.9,17.6C298.9,224.4,302.2,224.7,308.8,224L308.8,224z M294.3,168.7c1.4-0.7,3.1-1.5,3.8-1.6
		c1.5-0.3,2.6-1.5,2.3-2.3c-1-2.6-9.6-1.4-11.9,1.7c-1,1.3-0.6,2.3,1,3C291.3,170.3,291.4,170.2,294.3,168.7L294.3,168.7z
		 M326.8,169.5c1.1-0.5,1.4-0.8,1.4-1.7c0-1.3-0.7-2-3.2-3.3c-2.1-1-6.1-1.5-7.7-0.8c-2.3,0.9-1.6,2.7,1.4,3.6
		c0.9,0.3,2.2,0.8,2.8,1.3C323.7,170.1,324.8,170.3,326.8,169.5L326.8,169.5z"/>
	
		<linearGradient id="path5298_1_" gradientUnits="userSpaceOnUse" x1="373.202" y1="92.7157" x2="360.4741" y2="-280.6367" gradientTransform="matrix(0.8 0 0 -0.8 27 434.332)">
		<stop  offset="0" style="stop-color:#FFFFFF"/>
		<stop  offset="1" style="stop-color:#FFFFFF"/>
	</linearGradient>
	<path id="path5298" inkscape:connector-curvature="0" class="st4" d="M287.3,596.4c-15.3-5.4-30.3-15.3-34.2-22.6
		c-1.8-3.4-1-5.3,4.6-10c18.8-15.8,5.3-47.6-32.4-76.7c-9.7-7.5-22.7-17.5-28.9-22.3l-11.4-8.7l4.5-4.9c3-3.3,5.4-10.9,7.2-22.9
		c3.8-25.4,9.2-41.8,28.7-87.2c20.5-47.8,28.2-68.3,33.4-89.9l3.9-16.3l7.1,5.3c14.2,10.7,27,15.7,39.4,15.6
		c10-0.1,16.8-2.5,42.4-15.1c16.8-8.3,31-15,31.7-15c0.6,0,1.2,1,1.2,2.3c0,6.1,22.5,63.1,39.9,101.1c10.7,23.4,23.3,54.2,27.9,68.4
		l8.4,25.8l-9.2,9.6c-22.1,23-33.6,39.2-37.7,53.3c-1.2,4.2-3.7,20.8-5.6,37s-5,34.8-6.9,41.4c-4,13.9-8,17-36.1,28
		c-14.9,5.9-22.1,7.3-40.7,8C305.3,601.4,299.8,600.8,287.3,596.4L287.3,596.4z"/>
</g>
</svg>
